<?xml version="1.0" standalone="no"?>
<!DOCTYPE svg PUBLIC "-//W3C//DTD SVG 20010904//EN"
 "http://www.w3.org/TR/2001/REC-SVG-20010904/DTD/svg10.dtd">
<svg version="1.0" xmlns="http://www.w3.org/2000/svg"
 width="479.000000pt" height="479.000000pt" viewBox="0 0 479.000000 479.000000"
 preserveAspectRatio="xMidYMid meet">
<metadata>
Created by potrace 1.14, written by Peter Selinger 2001-2017
</metadata>
<g transform="translate(0.000000,479.000000) scale(0.100000,-0.100000)"
fill="#000000" stroke="none">
<path d="M1984 4595 c-4 -8 -10 -12 -15 -9 -5 3 -6 -2 -3 -11 5 -11 2 -14 -9
-9 -9 3 -14 13 -10 22 4 13 3 14 -5 4 -5 -7 -18 -15 -28 -16 -10 -2 -21 -11
-23 -22 -2 -10 -8 -25 -14 -32 -9 -11 -13 -10 -25 5 -13 17 -14 17 -8 -3 4
-15 2 -24 -9 -27 -9 -4 -12 -13 -9 -24 5 -15 4 -15 -5 -3 -6 9 -7 18 -1 24 6
6 10 17 10 26 0 9 -5 5 -13 -10 -7 -14 -18 -25 -25 -25 -7 0 -17 -6 -21 -14
-5 -8 -14 -10 -21 -6 -9 6 -11 4 -6 -4 5 -8 0 -14 -13 -18 -20 -5 -20 -7 -5
-18 12 -8 14 -14 5 -19 -6 -4 -9 -11 -6 -15 2 -5 -5 -17 -18 -27 -18 -16 -19
-16 -8 -1 9 11 10 17 2 17 -6 0 -11 -5 -11 -11 0 -5 -6 -7 -12 -3 -7 4 -4 -3
7 -16 17 -20 18 -23 2 -17 -16 6 -16 4 -3 -28 16 -36 6 -56 -18 -36 -9 8 -13
7 -13 -4 0 -8 5 -11 10 -8 7 4 8 -1 3 -13 -14 -34 -17 -64 -7 -64 6 0 8 9 6
20 -2 12 0 18 6 15 5 -4 7 -11 4 -16 -4 -5 0 -9 7 -9 10 0 10 -2 -1 -9 -11 -7
-11 -10 0 -15 8 -3 4 -4 -8 -2 -13 2 -26 -1 -30 -6 -3 -7 -1 -8 5 -4 19 11 14
-5 -5 -21 -13 -11 -10 -11 9 1 19 11 29 13 34 4 4 -7 3 -8 -4 -4 -7 4 -12 3
-12 -3 0 -5 6 -12 13 -15 6 -3 3 -4 -9 -1 -13 4 -26 -1 -35 -12 -12 -16 -12
-17 2 -6 16 13 29 8 29 -9 0 -5 -6 -6 -12 -2 -10 6 -10 4 0 -7 6 -7 12 -21 12
-32 0 -10 7 -25 15 -33 8 -9 15 -20 15 -25 0 -6 -7 -3 -16 5 -21 21 -24 20
-17 -6 2 -13 5 -31 5 -41 -1 -9 4 -15 9 -11 6 3 8 13 4 21 -4 12 -3 13 8 5 8
-7 16 -11 18 -9 2 1 -1 -2 -6 -8 -23 -21 -31 -62 -12 -57 6 2 3 -7 -8 -19 -11
-12 -14 -19 -7 -15 9 6 11 0 7 -26 -4 -23 -2 -29 4 -18 5 8 7 18 5 22 -3 4 0
8 5 8 14 0 14 -16 1 -40 -7 -13 -6 -19 5 -24 8 -3 12 -12 9 -21 -4 -8 -1 -15
7 -15 7 0 9 -3 6 -6 -4 -4 -14 -1 -23 7 -16 13 -16 12 -6 -7 13 -24 7 -34 -20
-34 -10 0 -18 -5 -18 -11 0 -5 -5 -7 -12 -3 -6 4 -27 8 -45 10 -30 2 -33 -1
-28 -20 5 -15 4 -17 -3 -7 -8 11 -11 10 -15 -5 -4 -14 -5 -12 -4 5 2 18 -4 25
-23 27 -18 3 -21 2 -10 -5 8 -5 18 -7 24 -4 5 3 6 1 2 -5 -5 -8 -15 -8 -32 -2
-23 9 -25 8 -19 -12 5 -18 4 -20 -4 -8 -10 13 -12 13 -21 0 -6 -10 -10 -11
-10 -3 0 7 -6 10 -14 7 -8 -3 -17 -1 -20 4 -3 5 6 8 19 6 28 -3 37 6 26 25 -6
10 -10 9 -14 -3 -9 -22 -22 -20 -36 7 -11 22 -11 22 -6 0 5 -17 -1 -25 -23
-37 -16 -8 -32 -12 -36 -9 -3 4 -6 0 -6 -8 -1 -10 -4 -9 -11 4 -5 9 -8 21 -5
25 2 4 -4 8 -14 8 -19 0 -19 -2 -3 -26 15 -23 15 -24 0 -11 -14 11 -20 11 -34
0 -9 -8 -14 -9 -10 -2 4 6 4 13 0 16 -5 2 -2 2 5 1 6 -2 12 1 12 6 0 6 -7 10
-16 10 -9 0 -12 5 -8 12 4 6 3 8 -4 5 -5 -4 -9 -18 -8 -31 3 -21 1 -23 -15
-13 -11 7 -19 15 -19 18 0 4 -7 9 -15 13 -8 3 -14 2 -14 -2 3 -20 -2 -25 -12
-12 -8 13 -9 12 -7 -4 2 -12 -4 -20 -15 -21 -9 -2 -15 1 -11 6 3 5 10 6 16 3
7 -4 8 -2 4 4 -4 8 -14 9 -24 4 -9 -5 -23 -8 -31 -8 -17 1 -28 26 -11 26 6 0
9 -4 6 -9 -4 -5 2 -8 11 -7 9 2 19 8 21 14 2 7 8 10 12 7 5 -3 11 -1 14 4 4 5
-2 8 -11 7 -9 -2 -19 -8 -21 -15 -3 -9 -9 -8 -22 4 -17 15 -19 15 -25 -4 -6
-19 -16 -25 -37 -23 -3 1 -11 -5 -18 -13 -6 -7 -18 -11 -26 -8 -8 3 -14 0 -14
-6 0 -6 6 -11 13 -11 6 0 4 -5 -6 -11 -13 -8 -22 -7 -32 1 -10 9 -13 7 -11 -7
2 -10 8 -18 14 -18 6 0 14 -4 19 -9 5 -6 2 -6 -6 -1 -10 6 -13 4 -9 -7 4 -8 2
-21 -2 -29 -5 -7 -5 -18 1 -25 7 -9 4 -16 -10 -24 -16 -8 -21 -8 -21 1 0 7 -2
10 -5 7 -12 -12 18 -56 36 -53 13 3 17 -2 14 -17 -3 -11 -7 -23 -10 -26 -3 -3
2 -13 11 -23 10 -11 13 -23 8 -31 -5 -7 -9 -17 -11 -23 -13 -58 -13 -66 -2
-59 8 4 9 3 5 -4 -4 -6 -14 -9 -24 -6 -9 3 -7 -1 6 -8 12 -8 20 -17 16 -21 -4
-4 -14 -1 -23 5 -10 8 -9 4 3 -10 11 -12 14 -22 8 -22 -7 0 -9 -7 -5 -17 5
-12 3 -14 -7 -8 -9 5 -11 4 -6 -4 4 -6 11 -9 16 -6 15 9 22 -15 10 -30 -10
-12 -10 -15 0 -15 7 0 10 -7 6 -15 -3 -9 5 -20 22 -29 15 -9 21 -15 13 -16
-10 0 -11 -3 -2 -13 8 -10 7 -14 -3 -14 -9 0 -13 8 -10 20 2 11 0 17 -3 13 -4
-4 -8 -18 -9 -32 -1 -20 3 -23 20 -19 12 3 15 2 9 -1 -7 -3 -13 -13 -13 -22 0
-15 2 -15 10 -2 5 8 10 11 10 6 0 -5 -12 -25 -27 -44 -15 -20 -22 -33 -16 -29
5 3 23 -8 39 -25 16 -18 21 -26 12 -19 -10 7 -19 11 -19 7 -5 -23 -4 -32 4
-43 6 -8 6 -18 0 -25 -14 -19 -10 -124 5 -120 10 2 10 -2 0 -17 -7 -11 -18
-17 -27 -13 -13 5 -13 3 1 -11 17 -18 14 -47 -5 -47 -6 0 -7 -3 -4 -6 4 -4 13
-1 21 5 11 9 16 9 22 0 4 -7 3 -9 -3 -6 -6 4 -13 0 -17 -8 -3 -8 -1 -15 5 -15
6 0 8 -4 5 -9 -3 -5 -16 -7 -29 -5 -20 4 -21 4 -2 -5 12 -6 15 -10 6 -10 -8
-1 -11 -4 -8 -7 4 -4 19 1 34 11 l28 17 -22 -22 c-20 -22 -21 -25 -7 -52 9
-17 20 -26 26 -22 7 4 8 3 4 -5 -4 -6 -12 -9 -17 -6 -5 4 -9 2 -9 -4 0 -5 5
-13 10 -16 6 -3 10 -12 10 -18 0 -7 -4 -6 -10 3 -8 13 -10 13 -10 -2 0 -9 5
-18 12 -20 7 -3 5 -7 -6 -11 -11 -5 -15 -3 -10 5 5 7 3 8 -5 3 -9 -5 -5 -16
16 -38 15 -17 20 -25 11 -18 -19 14 -42 6 -32 -11 5 -8 1 -9 -12 -5 -15 5 -14
3 4 -9 21 -16 32 -42 12 -29 -5 3 -10 1 -10 -5 0 -21 25 -4 26 18 1 12 -2 20
-6 17 -4 -2 -7 3 -7 11 0 20 20 0 23 -23 4 -25 -15 -55 -29 -47 -7 4 -4 -1 5
-12 13 -14 15 -23 7 -31 -7 -7 -3 -10 15 -8 27 3 36 -9 14 -18 -10 -4 -9 -8 2
-17 13 -10 13 -11 0 -7 -8 2 -14 11 -14 20 1 9 -2 14 -8 11 -5 -3 -6 -15 -2
-26 4 -15 3 -18 -6 -13 -9 5 -11 4 -6 -4 4 -6 13 -8 19 -4 7 3 3 -4 -8 -18
-15 -18 -16 -20 -2 -10 12 10 17 10 17 2 0 -7 4 -10 9 -7 5 4 8 -2 6 -11 -2
-10 -4 -21 -4 -25 -1 -3 -11 -4 -23 -2 -13 2 -16 1 -8 -2 22 -10 30 -27 19
-40 -7 -8 -6 -15 2 -20 7 -4 9 -3 6 3 -4 6 0 13 8 17 8 3 17 0 21 -6 4 -7 3
-8 -4 -4 -8 5 -12 -3 -12 -24 0 -20 -4 -29 -11 -24 -8 5 -8 1 0 -14 6 -11 17
-22 26 -25 9 -4 12 -13 8 -23 -3 -9 0 -20 8 -25 9 -6 10 -9 2 -9 -6 0 -14 4
-18 10 -3 5 -13 6 -21 3 -15 -5 -15 -7 -1 -15 9 -4 26 -23 38 -40 13 -17 19
-29 13 -26 -5 4 -17 -7 -26 -23 -19 -32 -10 -41 10 -9 7 11 18 20 25 20 8 0 7
-4 -3 -10 -13 -8 -12 -11 5 -25 20 -16 20 -16 -1 -6 -16 8 -23 5 -34 -12 -11
-19 -11 -20 1 -11 11 9 17 8 29 -4 13 -14 12 -15 -3 -9 -9 3 -19 2 -22 -3 -4
-6 -1 -10 4 -10 6 0 10 -5 9 -12 -2 -7 2 -12 9 -13 6 0 14 -3 18 -7 4 -3 -4
-5 -17 -4 -15 2 -25 -2 -25 -10 0 -7 4 -11 8 -9 4 3 10 -2 13 -11 3 -8 2 -12
-3 -9 -5 3 -13 0 -17 -6 -4 -8 -3 -9 4 -5 7 4 12 3 12 -3 0 -6 8 -8 18 -5 16
5 16 5 0 -6 -10 -6 -18 -16 -18 -22 0 -6 7 -5 17 3 15 11 16 11 6 -1 -18 -20
-16 -30 5 -24 10 4 13 3 6 -3 -6 -4 -10 -18 -9 -30 1 -13 -2 -23 -7 -23 -5 0
-6 -5 -3 -10 4 -6 12 -7 18 -3 7 4 6 0 -2 -10 -7 -9 -9 -17 -4 -17 13 0 14
-59 2 -82 -6 -11 -6 -18 0 -18 5 0 12 6 15 13 3 6 3 1 0 -12 -4 -16 -3 -21 5
-17 20 13 7 -18 -14 -32 -14 -9 -15 -12 -3 -8 21 6 34 -40 17 -60 -6 -8 -8
-14 -4 -14 4 0 1 -8 -6 -17 -13 -17 -13 -17 7 -1 26 23 41 23 23 1 -12 -15
-12 -16 3 -10 10 3 24 0 33 -9 17 -18 20 -34 5 -34 -5 0 -9 6 -7 13 1 6 -4 11
-11 9 -8 -1 -11 2 -6 10 4 7 3 9 -1 5 -5 -4 -10 -15 -11 -23 -1 -9 0 -13 3
-10 4 3 12 1 19 -5 8 -6 21 -8 30 -5 10 4 14 2 11 -6 -2 -7 -13 -11 -23 -10
-10 2 -16 1 -12 -4 4 -4 20 -8 35 -9 16 -1 27 -7 26 -13 -2 -7 2 -12 7 -12 6
0 10 4 10 9 0 14 -26 32 -35 23 -5 -4 -5 -2 -1 5 7 13 36 6 36 -9 0 -5 13 -7
29 -5 24 4 29 2 24 -11 -3 -12 2 -10 15 5 22 25 42 32 23 9 -10 -12 -8 -14 11
-12 13 1 29 5 35 9 6 4 19 4 29 0 10 -4 15 -2 11 4 -3 5 0 10 8 10 13 0 13 -3
-1 -18 -15 -16 -14 -17 18 -15 24 2 33 8 32 19 -2 15 3 19 22 16 4 0 11 5 15
13 7 10 9 10 9 1 0 -7 6 -13 14 -13 8 0 16 -5 18 -12 3 -7 7 -5 11 6 5 12 3
15 -6 10 -6 -4 -9 -4 -5 1 11 12 88 14 88 3 0 -6 8 -4 18 3 14 11 15 11 5 -1
-18 -20 -16 -29 5 -25 9 1 22 -2 29 -7 9 -7 11 -4 8 11 -5 25 12 28 18 3 4
-16 5 -16 6 1 1 18 26 23 36 7 3 -6 -1 -7 -9 -4 -10 4 -16 1 -16 -7 0 -7 3 -9
7 -6 3 4 12 2 20 -5 8 -6 13 -7 12 -2 -1 5 -1 18 0 28 1 19 1 19 15 1 7 -10
21 -20 30 -21 18 -2 22 11 6 21 -5 3 -10 1 -10 -5 0 -6 -5 -8 -11 -4 -15 9 9
23 33 19 10 -2 18 1 18 6 0 6 5 7 10 4 17 -11 11 -24 -9 -20 -14 3 -18 -1 -14
-12 3 -8 9 -10 12 -5 3 5 14 8 24 6 12 -1 17 2 14 10 -3 7 -1 19 5 27 8 12 9
11 5 -1 -3 -9 4 -20 17 -26 17 -8 23 -7 23 2 0 7 -4 11 -8 8 -4 -2 -11 1 -15
8 -4 7 -4 10 1 6 4 -4 14 0 22 10 8 9 12 12 9 5 -8 -15 4 -44 15 -37 5 3 7 10
4 15 -4 5 5 4 19 -2 16 -7 23 -17 19 -28 -3 -12 -1 -11 7 2 11 18 13 18 38 -5
15 -12 21 -16 14 -7 -6 9 -8 20 -4 24 4 5 1 5 -5 1 -7 -4 -13 -2 -13 4 0 7 8
9 22 4 21 -6 22 -6 8 12 -14 17 -14 18 2 6 18 -15 58 -13 71 3 5 6 7 4 5 -4
-2 -8 -14 -16 -27 -18 -13 -2 -31 -8 -40 -14 -12 -8 -10 -8 9 -3 14 4 32 7 41
6 9 0 24 14 33 31 10 20 14 24 10 10 -3 -13 -1 -23 5 -23 6 0 11 6 11 14 0 21
17 28 24 10 3 -8 2 -12 -4 -9 -6 3 -10 1 -10 -4 0 -18 18 -12 35 12 10 13 16
16 14 7 -3 -30 1 -40 18 -40 15 0 15 1 -2 13 -12 10 -14 16 -7 21 7 4 12 2 12
-4 0 -7 7 -5 16 4 8 9 12 22 8 28 -5 10 -4 10 6 1 10 -9 10 -16 2 -26 -9 -11
-8 -13 8 -12 11 1 23 5 27 10 5 4 2 5 -6 0 -10 -6 -12 -4 -5 6 5 8 9 17 9 21
0 3 3 10 7 14 4 3 5 -3 3 -15 -2 -13 2 -24 10 -28 8 -3 12 -10 8 -16 -3 -6 -1
-7 6 -3 8 6 9 12 2 20 -8 9 -7 13 4 13 17 0 28 -24 19 -40 -5 -8 -3 -8 6 0 11
10 11 18 1 40 l-12 28 18 -23 c15 -18 21 -20 32 -10 11 11 12 9 6 -12 -4 -17
-3 -21 3 -11 8 11 12 10 21 -5 6 -11 11 -14 11 -7 0 6 9 10 20 8 11 -2 22 0
25 5 3 5 -4 7 -15 5 -14 -3 -18 0 -13 8 5 8 2 8 -9 -1 -13 -10 -17 -10 -21 3
-5 11 -1 14 16 11 12 -3 23 -5 25 -7 1 -1 12 -2 24 -3 12 0 23 -8 25 -16 4
-12 3 -12 -5 -2 -8 11 -10 11 -15 -1 -6 -15 9 -17 30 -4 7 5 16 -1 23 -13 6
-11 16 -17 22 -14 7 5 8 2 3 -6 -6 -10 -12 -8 -27 9 -10 13 -18 20 -18 15 0
-4 7 -15 16 -25 8 -9 16 -23 18 -31 1 -7 4 -17 7 -23 4 -5 5 -17 4 -27 -2 -13
4 -16 29 -13 17 2 25 1 18 -2 -10 -4 -10 -8 0 -21 11 -13 11 -14 -2 -7 -35 21
-40 11 -9 -16 19 -16 28 -28 20 -27 -7 2 -16 -3 -19 -11 -3 -10 0 -11 9 -5 11
6 12 5 2 -7 -7 -8 -15 -34 -18 -57 -4 -34 -2 -42 11 -42 10 0 14 -6 11 -14 -3
-7 0 -19 6 -26 10 -10 7 -10 -12 0 -19 10 -21 14 -10 21 9 6 10 9 2 9 -16 0
-26 -17 -14 -24 5 -3 7 -19 6 -36 -1 -17 2 -33 8 -37 6 -4 7 -1 2 7 -5 9 -4
11 3 6 17 -10 15 -26 -4 -26 -8 0 -12 -5 -9 -10 4 -6 1 -18 -7 -27 -9 -12 -9
-15 0 -9 7 4 12 2 12 -4 0 -6 6 -8 13 -5 6 4 1 -3 -13 -15 -14 -12 -18 -20
-10 -18 9 1 16 -1 16 -7 0 -5 -7 -9 -16 -7 -12 2 -12 1 -2 -6 18 -12 18 -13 4
-39 -9 -16 -9 -24 0 -29 7 -5 8 -3 3 6 -5 9 -4 11 4 6 6 -4 9 -11 6 -16 -3 -4
1 -11 7 -14 7 -3 5 -4 -6 -3 -12 1 -20 -5 -22 -17 -2 -14 0 -16 9 -7 6 6 16
11 21 11 6 0 5 -4 -2 -9 -12 -7 -12 -12 0 -32 7 -13 16 -26 20 -29 9 -7 5 -43
-7 -53 -6 -5 -4 -7 5 -4 8 2 14 9 13 15 -2 6 4 9 13 5 13 -5 13 -8 -3 -27 -16
-19 -16 -19 0 -7 13 11 20 11 32 1 8 -6 20 -8 27 -4 10 6 9 3 -1 -9 -16 -20
-1 -23 18 -4 11 10 11 8 1 -12 -6 -13 -7 -21 -2 -17 6 3 12 1 14 -4 2 -6 10
-12 18 -13 8 -2 20 -6 26 -9 6 -4 23 0 39 8 15 8 30 12 33 9 3 -3 0 -5 -7 -5
-7 0 -3 -9 10 -20 21 -16 26 -17 35 -5 13 17 29 21 19 5 -3 -5 -2 -10 3 -10
16 0 24 33 10 42 -7 4 -9 8 -4 8 5 0 17 -7 26 -15 16 -14 17 -14 13 8 -3 14 1
28 8 32 8 5 10 4 5 -3 -4 -7 -3 -19 2 -28 8 -15 10 -15 15 0 4 11 3 15 -4 11
-6 -4 -9 1 -7 11 2 13 -3 19 -14 18 -10 -1 -15 2 -12 7 3 5 11 9 19 9 8 0 17
5 21 12 4 7 3 8 -4 4 -7 -4 -12 -2 -12 4 0 6 -5 8 -12 4 -7 -4 -8 -3 -4 5 4 6
12 8 18 5 7 -5 8 -2 3 6 -6 10 -4 12 8 7 9 -3 19 -2 22 4 4 5 3 9 -2 8 -31 -5
-41 22 -19 50 8 11 8 13 -1 7 -13 -7 -17 4 -14 32 1 6 -3 12 -8 12 -10 0 -8
-31 3 -49 6 -10 -24 -25 -32 -16 -3 3 0 5 6 5 7 0 12 7 12 16 0 9 -5 12 -12 8
-9 -5 -9 -2 1 9 11 14 11 17 0 18 -8 0 -4 5 9 11 12 6 22 15 22 20 0 5 6 6 13
2 9 -6 9 -4 -1 8 -10 13 -10 19 3 32 22 21 7 21 -19 -1 -12 -10 -15 -11 -8 -3
14 16 16 34 4 26 -10 -6 -10 40 0 49 3 3 5 -4 4 -16 0 -12 6 -24 14 -26 9 -3
11 -1 5 4 -13 10 -13 62 -1 83 7 12 6 13 -5 2 -7 -6 -18 -12 -23 -12 -6 1 0
10 13 20 13 11 18 20 11 20 -9 0 -10 3 -1 13 8 11 7 14 -7 14 -9 0 -24 -5 -32
-11 -11 -7 -10 -5 2 9 9 11 17 25 17 30 1 6 6 10 13 10 6 0 13 7 15 15 3 9 1
11 -4 5 -8 -10 -53 -19 -53 -10 0 3 15 11 33 19 l32 15 -30 -4 c-28 -4 -29 -3
-11 10 11 8 23 15 28 15 4 0 8 4 8 8 0 5 -7 9 -15 9 -8 0 -12 -3 -10 -7 2 -4
-2 -7 -9 -7 -7 0 -13 6 -13 13 0 7 4 11 9 8 4 -3 8 0 8 6 0 6 4 9 8 6 12 -7 7
34 -5 42 -5 4 -15 18 -22 32 -10 21 -10 22 1 10 7 -8 20 -21 29 -27 13 -10 16
-10 16 2 0 8 -4 12 -8 10 -4 -3 -9 2 -13 10 -3 8 -1 17 4 20 6 4 10 1 10 -5 0
-6 5 -8 11 -4 8 5 6 10 -5 16 -14 8 -15 13 -5 24 8 10 8 14 0 14 -10 0 -15
-13 -12 -32 0 -5 -4 -8 -9 -8 -12 0 -13 10 0 30 6 9 5 17 -3 23 -7 5 -3 7 12
5 15 -2 26 3 28 12 4 13 3 13 -6 0 -6 -8 -11 -13 -12 -10 0 3 -2 13 -4 23 -2
13 1 17 12 13 13 -5 14 -4 3 9 -11 13 -10 14 4 9 9 -3 22 -1 30 5 7 6 16 8 19
4 4 -3 7 -1 7 5 0 14 -6 15 -29 3 -13 -7 -18 -6 -18 4 0 7 7 11 15 7 11 -4 13
-1 7 9 -4 8 -4 11 0 6 5 -4 17 0 27 10 10 9 18 11 18 5 0 -6 -5 -12 -12 -14
-8 -3 -8 -9 1 -24 9 -13 11 -14 7 -3 -3 12 3 18 19 21 15 3 26 0 29 -9 2 -7 3
-5 2 4 -1 10 -9 17 -19 17 -9 -1 -14 2 -12 6 3 5 14 8 25 7 10 -1 17 -4 14 -8
-2 -4 0 -10 5 -14 6 -3 7 -13 4 -22 -4 -11 -3 -14 6 -9 6 4 11 13 10 19 -1 7
-1 19 0 27 1 12 3 13 10 1 5 -7 20 -13 35 -13 14 0 23 -4 20 -9 -3 -5 -1 -9 5
-9 5 0 11 6 14 13 3 9 8 9 21 -2 15 -12 17 -12 14 0 -2 9 5 14 20 13 15 0 21
4 18 12 -3 8 0 11 10 7 9 -3 13 0 11 8 -2 8 -2 11 0 6 3 -4 10 -4 15 -1 7 4 8
2 4 -4 -4 -7 -1 -12 9 -12 10 0 13 -5 9 -12 -4 -6 -3 -8 4 -4 6 3 13 2 17 -4
3 -5 12 -10 18 -10 8 0 8 3 2 8 -5 4 -17 16 -25 27 -14 19 -14 20 6 2 22 -19
39 -23 29 -7 -3 5 0 7 8 4 8 -3 18 -1 21 5 4 6 21 2 44 -11 l37 -22 -20 25
c-11 13 -16 21 -11 17 5 -4 16 -2 25 5 14 11 14 10 2 -5 -12 -16 -11 -18 9
-18 13 0 33 8 44 17 20 17 20 17 6 -1 -14 -18 -13 -19 2 -13 12 4 15 2 12 -8
-4 -10 1 -13 21 -9 17 3 24 1 20 -6 -3 -5 -1 -10 5 -10 7 0 10 5 8 12 -3 7 7
22 21 34 22 19 28 20 41 9 10 -9 20 -11 30 -5 8 5 10 10 4 10 -12 0 -12 29 0
48 5 8 -1 15 -16 21 -13 6 -16 10 -8 11 20 1 64 47 45 47 -8 0 -17 -9 -21 -19
-3 -10 -13 -18 -22 -18 -14 0 -14 2 -3 9 8 5 10 14 6 21 -5 8 -4 11 2 7 6 -4
14 0 17 9 3 8 11 12 17 8 8 -4 9 -3 5 5 -4 6 -11 9 -16 6 -4 -3 -7 3 -6 12 2
10 -2 21 -8 25 -8 5 -7 8 2 8 7 0 10 5 7 10 -4 6 -11 8 -16 5 -5 -4 -4 5 3 19
6 14 16 26 22 26 6 0 5 4 -3 9 -8 5 -20 7 -28 4 -7 -3 -13 0 -13 7 0 6 -6 8
-12 4 -8 -4 -9 -3 -5 2 5 5 16 9 24 9 9 0 17 6 19 13 1 7 0 8 -3 2 -8 -17 -21
-11 -18 7 1 10 8 17 14 15 8 -1 8 4 -1 18 -14 22 -28 8 -23 -22 2 -10 -1 -18
-7 -18 -5 0 -8 7 -4 15 3 8 -2 19 -12 24 -9 6 -12 11 -6 11 17 0 12 30 -5 31
-12 0 -11 2 3 8 23 9 30 40 10 48 -20 8 -17 24 4 16 14 -5 13 -3 -3 10 -15 11
-22 12 -27 4 -6 -9 -8 -9 -8 0 0 6 5 15 11 18 6 4 8 14 5 22 -5 11 -2 13 9 9
9 -3 14 -2 10 3 -3 5 1 12 7 14 10 4 10 6 0 6 -7 1 -10 6 -6 13 4 7 3 8 -5 4
-6 -4 -9 -11 -7 -15 3 -4 -2 -8 -10 -8 -10 0 -11 4 -4 11 5 5 10 18 10 28 0
10 5 18 11 18 6 0 1 9 -12 19 -20 16 -22 22 -11 33 11 11 12 10 6 -6 -6 -15
-4 -17 6 -11 8 5 11 4 7 -2 -3 -5 0 -10 8 -10 9 0 11 5 6 16 -10 19 -8 51 3
69 7 11 1 16 -16 13 -10 -1 -10 13 -1 22 3 4 13 1 22 -6 14 -11 14 -10 2 6
-11 13 -11 17 -1 17 8 0 11 3 8 6 -4 3 -17 0 -30 -7 -12 -6 -20 -8 -16 -4 4 4
3 16 -3 27 -7 14 -7 23 1 33 7 8 9 18 6 24 -4 5 0 16 9 24 13 13 13 16 -1 21
-8 3 -12 2 -9 -3 3 -5 0 -13 -7 -17 -7 -4 -10 -4 -6 1 4 4 3 14 -4 22 -6 8 -7
13 -2 12 25 -4 24 3 -2 26 -16 15 -22 25 -14 23 10 -2 15 5 13 22 -2 43 -10
65 -22 62 -18 -4 -12 12 9 26 12 7 18 17 15 21 -3 5 0 12 5 14 6 3 5 4 -2 2
-7 -1 -12 -8 -10 -14 1 -7 -1 -10 -6 -7 -5 3 -7 21 -6 41 2 23 -1 33 -7 29 -6
-3 -5 3 2 14 7 12 17 18 23 15 5 -3 6 -1 2 5 -3 6 2 15 11 21 10 6 13 11 7 11
-5 0 -16 -6 -23 -12 -12 -11 -13 -10 -7 6 4 11 0 30 -9 45 -15 24 -14 24 8 -3
l25 -28 -6 28 c-5 27 -4 28 14 14 19 -14 19 -14 1 7 -12 14 -15 23 -8 28 17
10 13 26 -6 23 -12 -2 -17 6 -19 30 -1 17 1 32 6 32 4 0 6 -14 5 -30 -2 -25 0
-28 11 -19 11 9 11 15 3 25 -8 10 -8 14 0 14 6 0 11 5 11 11 0 5 -4 8 -9 4 -5
-3 -12 -1 -16 5 -4 6 -10 8 -14 6 -4 -3 -6 16 -4 42 2 26 5 57 5 69 1 12 6 19
12 16 5 -4 7 1 3 11 -5 13 -3 17 7 13 8 -3 20 2 28 11 7 8 8 13 2 9 -7 -4 -18
1 -25 10 -8 9 -9 14 -3 10 7 -4 14 2 17 14 4 13 10 19 19 14 7 -4 2 4 -12 17
-14 13 -26 30 -28 37 -3 16 17 43 27 36 4 -2 8 2 8 9 0 7 -6 13 -13 13 -7 0
-10 -5 -7 -11 3 -6 2 -8 -2 -3 -14 12 -13 66 1 60 14 -5 13 22 -1 34 -4 4 -5
2 -1 -4 4 -7 2 -13 -4 -13 -7 0 -10 6 -7 13 2 6 11 11 20 9 12 -2 15 2 10 14
-4 12 -3 15 6 10 7 -5 10 -2 9 6 -2 8 5 12 17 10 16 -2 17 -1 6 7 -8 5 -22 8
-32 6 -10 -2 -22 1 -25 7 -4 6 -2 8 4 4 6 -3 13 -2 17 4 4 6 11 7 17 4 7 -5 7
-1 0 12 -8 15 -7 23 6 37 15 17 14 20 -15 47 -23 22 -30 35 -26 51 4 15 2 20
-5 15 -11 -7 -10 13 4 48 6 16 4 18 -15 13 -21 -5 -21 -4 -8 11 22 26 32 46
19 38 -7 -4 -12 -1 -12 6 0 9 -3 9 -10 -2 -6 -9 -10 -10 -10 -3 0 6 4 15 10
18 6 4 5 11 -3 19 -9 10 -14 11 -19 2 -6 -8 -8 -8 -8 1 0 6 5 15 11 19 8 4 8
8 0 13 -5 4 -8 17 -4 29 3 12 9 19 15 16 5 -3 4 -13 -4 -22 -8 -10 -8 -13 -1
-9 7 5 10 1 8 -10 -3 -23 4 -35 16 -27 5 3 6 11 2 17 -4 7 -8 19 -8 27 -1 8
-11 30 -22 49 -12 19 -20 38 -17 42 2 4 0 10 -5 14 -6 3 -9 11 -7 18 1 7 1 9
-1 5 -3 -5 -12 -8 -21 -8 -15 0 -15 2 -2 10 13 8 12 10 -2 10 -10 0 -18 4 -18
9 0 6 -8 8 -18 6 -11 -2 -19 3 -19 11 0 17 14 18 20 2 4 -10 6 -10 6 -1 1 7
-12 19 -29 28 -25 13 -29 13 -24 1 4 -10 -1 -14 -19 -12 -13 2 -30 7 -38 11
-11 7 -11 5 1 -10 11 -14 11 -17 1 -11 -8 5 -17 3 -22 -5 -7 -11 -8 -9 -7 6 2
11 -1 20 -7 20 -5 0 -9 -9 -7 -20 2 -18 1 -18 -11 3 -13 22 -28 21 -23 -1 2
-7 1 -9 -1 -4 -3 4 -10 4 -15 1 -7 -4 -8 -2 -4 4 6 11 1 14 -21 11 -4 0 -11 8
-15 18 -7 16 -8 16 -5 -2 2 -11 8 -19 13 -18 6 1 11 -4 11 -11 0 -9 -6 -10
-23 -2 -12 6 -20 14 -18 18 3 4 -2 5 -10 2 -8 -3 -12 -13 -9 -22 4 -14 3 -14
-5 -3 -6 8 -17 11 -25 8 -11 -4 -14 -1 -10 9 6 16 -13 11 -57 -14 -23 -13 -24
-13 -6 2 17 14 18 16 3 16 -9 0 -20 0 -23 -1 -4 0 -10 5 -14 11 -5 8 -9 7 -13
-3 -4 -11 0 -15 14 -12 11 2 17 0 14 -6 -4 -5 -11 -7 -16 -4 -5 4 -9 0 -9 -7
0 -10 -2 -10 -9 1 -5 8 -16 11 -27 7 -13 -4 -11 0 6 13 l25 20 -24 -6 c-17 -4
-22 -3 -17 5 11 18 0 14 -15 -5 -9 -11 -10 -14 -2 -9 9 5 11 2 6 -10 -4 -10
-8 -13 -10 -7 -2 6 -15 9 -29 7 -13 -2 -24 0 -24 5 0 6 9 8 21 6 17 -3 19 -2
9 10 -7 8 -16 13 -20 10 -5 -3 -10 -2 -13 2 -2 5 -2 2 -1 -4 2 -8 -6 -13 -20
-13 -14 0 -31 -3 -39 -6 -8 -3 -21 2 -30 10 -18 18 -33 20 -42 6 -3 -5 0 -8 7
-7 7 2 10 2 5 0 -4 -3 -4 -10 0 -16 4 -7 -1 -6 -10 2 -9 7 -15 17 -12 21 10
16 -25 19 -40 4 -12 -12 -15 -13 -15 -2 0 8 6 20 13 28 10 12 9 12 -5 1 -10
-7 -18 -10 -18 -6 0 4 -7 2 -15 -5 -8 -7 -15 -8 -15 -3 0 6 -10 9 -22 9 -13
-1 -29 3 -37 8 -11 8 -13 8 -7 -1 10 -18 -5 -16 -33 4 -14 9 -21 12 -18 6 4
-6 -1 -17 -10 -24 -14 -12 -15 -11 -9 11 l8 25 -17 -22 c-9 -13 -21 -23 -27
-23 -6 0 -5 7 3 17 13 15 12 15 -8 5 -25 -14 -36 -15 -29 -4 2 4 -5 9 -17 9
-17 2 -19 0 -7 -8 11 -7 8 -8 -12 -5 -15 2 -29 -1 -31 -7 -2 -6 -6 -3 -10 7
-4 10 -3 15 3 11 6 -3 10 -1 10 4 0 14 -17 14 -25 1 -8 -13 -25 -13 -25 1 0 5
4 8 8 5 5 -3 9 1 9 7 0 25 -36 16 -46 -11 -6 -17 -10 -21 -10 -9 -1 9 -6 17
-12 17 -5 0 -7 6 -3 13 5 8 2 7 -10 -2 -13 -11 -14 -16 -4 -23 10 -8 10 -9 -1
-6 -8 2 -15 14 -16 26 -1 12 -5 25 -10 29 -4 5 -4 -2 -1 -14 5 -15 2 -25 -11
-32 -17 -10 -17 -10 1 -11 11 0 17 -3 13 -6 -8 -8 -47 6 -47 17 0 6 4 8 8 5 4
-2 14 0 22 6 12 8 12 9 -2 4 -11 -3 -18 0 -18 7 0 8 -4 7 -10 -3 -6 -9 -13
-11 -17 -5 -12 15 -34 17 -49 4 -10 -8 -14 -9 -14 0 0 7 -10 10 -25 7 -34 -6
-47 -15 -39 -28 4 -7 2 -8 -4 -4 -9 5 -9 13 -1 29 9 18 9 20 -2 10 -7 -7 -18
-13 -23 -13 -6 0 -4 5 4 10 13 8 13 11 1 22 -10 9 -12 10 -7 1 5 -9 2 -11 -9
-7 -12 5 -13 10 -6 17 18 18 13 27 -16 28 -17 1 -21 3 -10 6 9 2 17 11 17 19
0 8 5 14 12 14 6 0 8 3 4 7 -4 5 -13 0 -21 -10 -11 -16 -13 -16 -19 -2 -4 11
-2 14 6 9 8 -5 9 -2 5 10 -4 9 -3 14 2 11 5 -3 13 -1 16 5 4 6 3 10 -2 9 -20
-4 -24 2 -12 18 10 11 10 14 2 9 -7 -4 -13 -3 -13 3 0 5 6 12 13 14 9 4 8 6
-2 6 -11 1 -11 4 -1 16 9 10 9 15 1 15 -10 0 -15 -14 -12 -33 1 -5 -3 -6 -9
-2 -6 4 -9 14 -8 23 2 10 -3 16 -11 14 -12 -3 -12 -1 -1 13 12 14 11 18 -1 27
-11 8 -10 9 5 4 14 -5 17 -2 12 9 -3 9 -2 13 4 10 6 -3 10 -1 10 6 0 7 -9 9
-22 6 -22 -6 -22 -5 -5 8 11 7 26 11 35 8 15 -4 15 -3 2 6 -13 9 -13 13 -1 33
13 21 13 22 -2 10 -21 -18 -40 -6 -32 19 4 11 2 26 -5 34 -8 10 -8 15 1 21 8
5 9 3 4 -6 -5 -8 -4 -11 3 -6 6 4 9 13 5 22 -4 11 -9 12 -18 4 -10 -8 -15 -7
-21 2 -4 7 -4 10 1 6 4 -4 14 -1 21 7 16 16 19 29 4 20 -5 -3 -10 -1 -10 4 0
6 5 11 10 11 6 0 10 5 10 11 0 5 -4 7 -10 4 -5 -3 -10 1 -10 9 0 19 11 20 30
4 12 -11 12 -10 2 3 -10 13 -9 19 1 28 8 6 16 9 19 6 2 -3 5 2 5 10 0 8 -4 12
-9 9 -4 -3 -7 5 -5 18 1 15 -3 22 -12 20 -9 -2 -12 4 -8 17 3 14 1 18 -9 14
-8 -3 -11 -10 -7 -17 4 -6 -1 -5 -10 3 -18 15 -23 26 -7 16 6 -3 10 1 10 9 0
10 -7 13 -20 11 -11 -2 -18 0 -15 5 6 9 24 8 41 -2 6 -4 11 -1 11 7 0 8 -3 13
-6 11 -12 -7 -51 14 -51 26 0 9 3 9 10 -2 8 -13 10 -12 10 3 0 9 -5 17 -11 17
-5 0 -7 6 -3 13 5 7 0 6 -11 -3 -17 -14 -18 -13 -12 3 15 38 19 52 10 42 -13
-16 -45 -15 -39 2 3 8 1 11 -4 8 -6 -3 -10 -2 -10 4 0 6 -7 7 -17 4 -11 -4
-14 -3 -9 5 4 7 2 12 -4 12 -6 0 -10 -6 -9 -12 3 -24 -1 -38 -10 -38 -5 0 -8
11 -6 25 3 28 -3 33 -11 10z m61 -25 c3 -5 1 -10 -4 -10 -6 0 -11 5 -11 10 0
6 2 10 4 10 3 0 8 -4 11 -10z m-96 -16 c3 -4 -1 -5 -10 -1 -9 3 -22 0 -28 -6
-8 -8 -11 -7 -11 5 0 12 7 16 21 13 12 -3 24 -7 28 -11z m-74 -64 c-3 -5 -12
-10 -18 -10 -7 0 -6 4 3 10 19 12 23 12 15 0z m-68 -26 c0 -7 -7 -10 -15 -6
-10 3 -13 1 -8 -7 4 -6 4 -11 -1 -10 -21 4 -34 -2 -27 -13 4 -7 3 -8 -5 -4 -9
6 -6 14 11 30 26 24 45 29 45 10z m375 -86 c-7 -7 -12 -8 -12 -2 0 14 12 26
19 19 2 -3 -1 -11 -7 -17z m-35 -40 c-3 -8 -6 -5 -6 6 -1 11 2 17 5 13 3 -3 4
-12 1 -19z m43 17 c0 -2 -6 -8 -13 -14 -10 -8 -14 -7 -14 2 0 8 6 14 14 14 7
0 13 -1 13 -2z m-480 -45 c0 -5 -2 -10 -4 -10 -3 0 -8 5 -11 10 -3 6 -1 10 4
10 6 0 11 -4 11 -10z m-13 -73 c0 -8 -6 -14 -14 -14 -17 0 -17 14 0 20 6 3 12
6 13 6 0 1 1 -5 1 -12z m483 -126 c0 -4 -6 -8 -13 -8 -8 0 -14 6 -14 13 0 7 6
10 14 7 7 -3 13 -8 13 -12z m-493 -36 c0 -8 -4 -12 -9 -9 -5 3 -6 10 -3 15 9
13 12 11 12 -6z m488 -125 c10 -11 14 -20 9 -20 -5 0 -15 9 -22 20 -7 11 -11
20 -9 20 2 0 12 -9 22 -20z m-465 -39 c0 -5 -7 -12 -16 -15 -14 -5 -15 -4 -4
9 14 17 20 19 20 6z m16 -56 c2 -12 -2 -12 -17 -5 -23 13 -25 22 -2 13 12 -5
14 -3 8 8 -5 8 -4 11 0 6 5 -4 10 -14 11 -22z m594 -101 c-3 -5 -8 -8 -12 -6
-5 1 -8 -4 -8 -10 0 -9 -3 -8 -9 2 -6 8 -8 17 -5 21 6 11 40 4 34 -7z m66 1
c18 -14 18 -15 -6 -11 -14 2 -31 -2 -39 -8 -12 -9 -12 -8 -2 12 14 26 21 27
47 7z m157 0 c-3 -9 -8 -14 -10 -11 -3 3 -2 9 2 15 9 16 15 13 8 -4z m270 -29
c7 4 8 3 4 -2 -5 -5 -18 -9 -30 -10 -12 -1 -31 -4 -42 -8 -15 -6 -15 -4 3 6
12 8 19 18 15 22 -4 5 2 3 15 -3 12 -7 28 -9 35 -5z m41 -5 c3 -5 -1 -14 -8
-20 -12 -10 -14 -9 -11 6 2 10 4 19 4 21 2 5 10 2 15 -7z m43 -13 c-3 -8 -6
-5 -6 6 -1 11 2 17 5 13 3 -3 4 -12 1 -19z m-1176 -15 c-12 -20 -14 -14 -5 12
4 9 9 14 11 11 3 -2 0 -13 -6 -23z m929 23 c0 -3 -4 -8 -10 -11 -5 -3 -10 -1
-10 4 0 6 5 11 10 11 6 0 10 -2 10 -4z m300 -11 c0 -8 -4 -15 -10 -15 -5 0 -7
7 -4 15 4 8 8 15 10 15 2 0 4 -7 4 -15z m-1340 -30 c0 -8 -2 -15 -4 -15 -2 0
-6 7 -10 15 -3 8 -1 15 4 15 6 0 10 -7 10 -15z m56 -13 c-17 -16 -18 -16 -5 5
7 12 15 20 18 17 3 -2 -3 -12 -13 -22z m1957 13 c-3 -9 -8 -14 -10 -11 -3 3
-2 9 2 15 9 16 15 13 8 -4z m-26 -17 c-3 -8 -6 -5 -6 6 -1 11 2 17 5 13 3 -3
4 -12 1 -19z m-2391 -15 c-10 -10 -19 5 -10 18 6 11 8 11 12 0 2 -7 1 -15 -2
-18z m214 13 c0 -2 -7 -7 -16 -10 -8 -3 -12 -2 -9 4 6 10 25 14 25 6z m2292
-61 c0 -5 -5 -10 -12 -11 -7 -2 -6 -1 1 3 8 4 7 8 -2 15 -11 8 -11 9 -1 6 8
-2 14 -8 14 -13z m13 -35 c3 -6 -1 -7 -9 -4 -18 7 -21 14 -7 14 6 0 13 -4 16
-10z m-600 -43 c4 5 5 2 1 -5 -4 -7 -11 -10 -15 -8 -4 3 -8 -1 -8 -8 0 -7 6
-13 13 -13 7 0 11 4 8 9 -3 4 -1 8 5 8 5 0 13 9 16 20 4 11 11 17 17 14 6 -4
7 -9 1 -13 -13 -8 -13 -41 0 -41 5 0 6 7 3 16 -6 15 -4 15 10 3 23 -19 49 -22
33 -3 -6 7 -15 11 -20 8 -5 -3 -9 0 -9 5 0 14 13 14 26 1 6 -6 21 -12 34 -15
12 -2 29 -14 37 -25 8 -11 19 -17 25 -14 7 5 8 2 3 -6 -6 -10 -4 -12 8 -7 23
9 17 -15 -8 -30 -11 -7 -14 -12 -7 -13 6 0 12 -8 12 -17 0 -15 2 -16 10 -3 6
9 5 17 -3 22 -8 5 -8 8 -1 8 19 0 23 -11 13 -36 -7 -20 -5 -26 9 -30 53 -17
54 -18 30 -33 -21 -13 -22 -13 -9 2 7 10 9 17 3 17 -14 0 -22 -24 -12 -39 5
-9 10 -10 14 -2 9 14 26 14 26 0 0 -5 -4 -7 -10 -4 -5 3 -10 -1 -10 -10 0 -9
4 -13 10 -10 6 4 7 -1 3 -11 -5 -13 -3 -15 7 -9 9 6 11 4 5 -5 -4 -7 -2 -16 6
-21 9 -6 10 -9 2 -9 -6 0 -18 9 -26 21 -8 11 -18 16 -21 11 -3 -6 1 -13 10
-16 8 -3 13 -10 10 -14 -3 -5 1 -9 9 -10 8 -1 22 -3 30 -4 8 -1 15 -5 15 -10
0 -5 -6 -8 -14 -6 -8 2 -15 -1 -16 -7 -1 -5 -7 -17 -13 -25 -10 -13 -10 -13 5
-1 10 7 15 18 11 25 -3 6 -2 7 3 3 12 -12 12 -30 -1 -39 -6 -5 -6 -8 2 -8 7 0
16 8 22 17 5 10 12 15 15 12 3 -3 -3 -15 -14 -27 -24 -25 -25 -34 -6 -30 8 2
15 -1 14 -7 0 -5 -4 -9 -9 -8 -4 2 -6 -4 -2 -12 4 -12 9 -13 18 -5 10 8 15 7
21 -2 4 -7 4 -10 -1 -6 -11 10 -35 -11 -35 -30 0 -13 2 -13 13 2 12 16 13 14
9 -18 -3 -23 -8 -34 -16 -29 -6 3 -3 -2 6 -13 11 -12 16 -33 14 -61 -1 -23 1
-40 6 -37 5 3 6 10 3 15 -4 5 2 6 11 2 11 -4 13 -8 6 -11 -7 -2 -12 -8 -12
-13 0 -6 5 -7 12 -3 7 5 8 3 4 -5 -5 -7 -14 -10 -22 -7 -8 3 -14 1 -14 -4 0
-6 6 -10 13 -10 18 0 33 -37 32 -80 -1 -19 4 -39 10 -43 6 -5 3 -6 -8 -3 -10
3 -16 2 -12 -3 3 -5 -1 -12 -7 -15 -7 -3 -3 -3 10 0 20 5 22 2 18 -20 -3 -14
-7 -30 -11 -35 -3 -5 3 -14 12 -20 11 -6 13 -11 5 -11 -7 0 -10 -5 -6 -12 4
-7 3 -8 -5 -4 -6 4 -9 11 -6 16 3 5 -5 14 -17 20 -19 9 -21 9 -7 -2 9 -8 16
-28 16 -50 0 -21 3 -41 7 -45 4 -5 6 -2 4 6 -2 7 4 16 12 18 9 3 11 1 4 -4 -6
-4 -10 -20 -9 -34 1 -18 -3 -26 -14 -25 -20 1 -23 -63 -4 -82 7 -8 11 -18 8
-23 -4 -5 -2 -9 4 -9 10 0 9 -25 -2 -36 -10 -10 -9 -26 1 -20 4 3 8 -7 8 -22
-1 -17 4 -26 12 -24 8 1 11 -2 7 -8 -4 -6 -13 -5 -25 2 -24 16 -35 5 -21 -20
13 -24 15 -65 3 -58 -5 3 -9 -2 -9 -10 0 -8 6 -13 14 -10 7 3 13 1 13 -4 0 -6
-8 -10 -17 -10 -16 -1 -16 -2 1 -15 11 -8 14 -15 8 -15 -8 0 -11 -14 -8 -40 3
-36 2 -39 -15 -30 -15 9 -17 7 -13 -12 15 -65 15 -91 2 -99 -10 -7 -10 -9 3
-9 8 0 21 6 29 13 12 10 12 9 2 -4 -6 -9 -9 -19 -5 -23 4 -4 1 -4 -8 -1 -10 4
-15 -1 -15 -14 0 -16 3 -18 16 -8 12 9 13 9 3 -3 -8 -8 -9 -19 -3 -30 6 -12 5
-17 -5 -17 -7 0 -11 6 -8 14 3 7 1 13 -5 13 -6 0 -9 -8 -8 -17 2 -10 -3 -22
-10 -28 -10 -7 -11 -14 -3 -25 9 -12 10 -12 5 3 -4 12 -2 17 6 14 7 -2 12 -10
10 -16 -1 -7 2 -10 7 -7 5 4 13 1 17 -5 4 -8 3 -9 -4 -5 -7 4 -12 2 -12 -3 0
-6 8 -11 18 -12 9 0 12 -3 5 -5 -7 -3 -10 -11 -7 -19 3 -7 1 -16 -5 -20 -7 -4
-8 0 -4 11 4 12 3 15 -5 10 -8 -4 -10 -2 -6 7 3 8 0 18 -6 22 -14 8 -6 -41 10
-60 8 -10 6 -17 -9 -27 -19 -14 -19 -14 -1 -26 16 -10 18 -9 15 10 -3 11 -1
18 3 14 10 -10 10 -76 0 -70 -5 3 -5 10 -2 16 4 6 3 8 -3 5 -5 -3 -7 -22 -5
-41 2 -20 8 -34 13 -31 9 6 3 -35 -7 -44 -4 -3 -4 2 -1 11 3 10 2 20 -3 23 -9
6 -15 -16 -11 -38 1 -5 -3 -6 -8 -3 -5 4 -14 -1 -19 -9 -5 -10 -15 -13 -25 -9
-9 3 -14 11 -11 16 4 7 9 6 13 -1 5 -8 14 -4 27 10 19 22 19 22 -1 12 -11 -6
-25 -9 -31 -6 -5 2 -17 -11 -26 -29 l-17 -33 4 33 c4 33 -8 44 -19 16 -3 -8
-10 -13 -15 -9 -5 3 -12 1 -16 -4 -3 -6 3 -8 15 -6 21 4 28 -9 10 -20 -5 -3
-10 -1 -10 4 0 6 -6 10 -12 9 -7 -2 -13 5 -13 14 0 24 -11 31 -12 8 -1 -11 -8
-29 -16 -40 -13 -19 -15 -19 -21 -4 -5 13 -9 14 -20 5 -8 -7 -17 -8 -20 -3 -3
5 -17 8 -31 7 -14 -2 -23 1 -19 6 3 5 10 7 15 4 15 -10 10 2 -8 16 -11 10 -14
10 -9 2 5 -9 1 -13 -10 -13 -9 0 -22 -7 -29 -16 -11 -15 -12 -15 -10 4 1 12 4
25 8 28 10 11 8 24 -4 24 -5 0 -7 -5 -4 -10 3 -5 -1 -10 -10 -10 -9 0 -13 -4
-10 -10 7 -11 -8 -14 -18 -3 -4 3 1 11 10 18 12 9 13 16 6 30 -10 17 -11 17
-17 -3 -4 -12 -12 -22 -18 -22 -7 0 -7 4 -1 13 17 22 22 46 11 53 -7 4 -8 3
-4 -4 4 -7 2 -12 -3 -12 -13 0 -13 3 -5 24 5 12 11 13 27 5 20 -9 20 -9 5 4
-21 17 -23 33 -5 40 6 3 2 4 -10 4 -15 -1 -21 -7 -20 -20 1 -11 -4 -21 -11
-23 -7 -1 -8 0 -2 3 5 2 10 9 10 14 0 6 -5 7 -10 4 -13 -8 -8 18 5 27 6 5 5
16 -4 30 -13 21 -13 22 2 10 12 -10 17 -10 23 -1 4 8 3 9 -4 5 -7 -4 -12 -2
-12 3 0 6 -7 11 -15 11 -8 0 -15 4 -15 10 0 5 6 7 13 4 8 -3 14 2 14 10 0 8
-4 13 -8 10 -4 -2 -11 1 -15 7 -4 8 -3 9 4 5 7 -4 12 -2 12 5 0 8 5 7 17 -2
15 -13 15 -12 2 8 -9 16 -16 19 -21 10 -5 -8 -8 -5 -8 9 0 11 -6 26 -12 33 -8
8 -2 7 12 -2 25 -16 26 -16 27 6 1 12 -1 17 -5 10 -5 -8 -12 -8 -25 2 -16 11
-16 13 -2 19 11 4 14 2 9 -7 -6 -8 -3 -8 8 1 17 14 14 42 -4 42 -6 0 -4 -8 3
-17 12 -16 12 -17 -2 -6 -9 7 -19 10 -22 6 -4 -3 -7 -1 -7 5 0 7 4 12 9 12 6
0 8 9 6 20 -2 11 1 22 6 25 5 4 7 10 5 14 -6 10 5 24 33 44 23 15 23 16 3 14
-11 0 -18 -5 -16 -9 3 -4 -3 -5 -12 -1 -11 4 -13 8 -6 11 7 2 12 8 12 13 0 6
-6 7 -12 3 -9 -5 -9 -2 1 9 11 14 11 17 0 18 -8 1 -18 1 -22 0 -5 -1 -6 3 -2
8 3 6 13 7 23 4 15 -6 15 -5 3 10 -7 9 -11 17 -7 17 3 0 9 0 14 0 4 0 7 -13 7
-29 0 -16 4 -33 9 -38 5 -4 6 -3 2 4 -3 6 -2 14 4 18 6 4 7 12 3 18 -4 7 -8
17 -9 22 -1 6 -6 19 -10 29 -5 14 -4 17 4 12 8 -5 10 -1 5 10 -5 13 -3 15 8 9
11 -6 12 -5 2 6 -18 19 -16 29 5 22 15 -5 14 -4 -2 9 -13 10 -15 17 -8 22 15
9 16 26 1 26 -5 0 -7 -4 -4 -10 3 -5 2 -10 -4 -10 -12 0 -17 26 -13 67 3 24 8
30 21 26 9 -3 3 4 -14 16 -16 11 -26 21 -22 21 4 0 3 9 -3 20 -9 16 -8 18 5
14 8 -3 13 -10 10 -14 -3 -4 3 -14 13 -21 15 -12 16 -12 6 1 -6 8 -10 23 -9
33 2 9 -1 15 -6 11 -12 -7 -11 10 1 22 8 8 6 15 -5 24 -13 11 -19 10 -38 -6
-12 -10 -16 -12 -9 -4 14 16 16 50 3 50 -5 0 -14 -7 -21 -15 -8 -9 -8 -15 -2
-15 6 0 13 6 15 13 4 9 6 9 6 0 1 -19 -18 -26 -34 -13 -17 14 -20 40 -5 40 5
0 7 -8 3 -17 -7 -19 -5 -18 15 8 12 16 3 18 -40 10 -4 0 -4 -9 -1 -18 6 -15 5
-16 -9 -3 -10 9 -13 19 -7 25 5 5 9 14 9 20 0 5 -5 2 -11 -7 -11 -21 -30 -24
-25 -5 1 6 1 9 -1 4 -3 -4 -8 -5 -12 -3 -4 3 -8 -1 -8 -9 0 -8 4 -12 8 -9 4 2
10 0 13 -5 4 -5 -2 -8 -11 -6 -10 2 -22 4 -26 4 -5 1 -5 6 -1 12 4 7 1 10 -7
7 -8 -3 -14 -10 -14 -16 0 -5 -3 -14 -7 -18 -4 -3 -6 3 -3 14 2 15 0 19 -11
15 -10 -4 -12 0 -7 13 4 14 0 12 -15 -6 -12 -14 -21 -20 -22 -15 0 6 6 17 13
24 8 10 8 12 0 7 -6 -3 -14 -2 -18 4 -3 5 -12 10 -18 10 -7 0 -4 -5 6 -11 17
-10 15 -29 -4 -29 -6 0 -7 5 -4 10 4 6 1 9 -6 8 -7 -2 -13 2 -14 9 0 6 -3 14
-7 17 -5 3 -6 3 -3 -1 3 -3 -3 -12 -13 -20 -16 -12 -15 -13 3 -6 12 4 16 3 10
-3 -5 -5 -12 -12 -15 -16 -3 -4 -11 2 -19 13 -7 12 -8 19 -3 15 5 -3 9 1 9 9
0 8 -5 13 -11 12 -6 -1 -10 4 -8 11 3 16 -33 -1 -44 -21 -5 -9 -4 -9 7 1 16
15 33 16 23 0 -4 -6 -3 -9 2 -6 5 4 10 -6 11 -20 1 -24 0 -24 -9 -7 -16 30
-18 31 -28 15 -7 -10 -10 -11 -10 -2 0 13 -26 17 -33 5 -2 -5 -2 -2 -1 5 2 6
0 12 -4 12 -5 0 -14 -6 -22 -12 -12 -11 -12 -10 -1 5 15 20 2 23 -18 5 -11
-11 -13 -10 -8 4 4 11 2 15 -7 12 -7 -3 -18 5 -24 18 l-12 23 6 -22 c3 -14 1
-23 -6 -23 -6 0 -9 -4 -6 -9 4 -5 -1 -8 -10 -7 -20 3 -34 25 -26 44 3 9 1 13
-5 9 -6 -4 -14 -1 -17 5 -3 7 -3 2 0 -12 5 -24 4 -24 -10 -7 -8 11 -12 25 -10
32 3 7 -5 15 -18 18 -19 5 -21 4 -8 -6 14 -11 16 -20 11 -43 0 -4 -8 -1 -16 6
-8 7 -22 10 -30 6 -10 -3 -14 -2 -9 5 3 6 15 9 25 6 11 -3 16 -1 13 5 -4 5
-17 8 -31 5 -13 -2 -21 -2 -18 1 10 10 -17 31 -33 25 -14 -4 -15 -3 -2 6 10 7
19 6 31 -5 8 -7 20 -14 25 -14 5 0 1 5 -9 11 -15 9 -16 13 -5 27 12 15 11 16
-4 3 -15 -11 -18 -11 -18 0 0 10 -3 10 -12 1 -7 -7 -17 -12 -22 -12 -6 0 -5 4
3 9 9 6 11 16 7 27 -9 22 -8 24 2 24 4 0 7 -4 7 -9 0 -5 4 -13 9 -18 5 -5 6
-3 2 5 -4 7 -2 12 6 12 8 1 7 4 -4 10 -19 11 -17 47 3 42 9 -2 10 0 1 11 -7 8
-8 18 -4 23 4 4 -1 2 -10 -5 -10 -7 -15 -17 -12 -22 3 -5 0 -9 -6 -9 -7 0 -10
6 -7 14 3 7 1 18 -5 24 -8 8 -8 15 0 24 6 8 8 19 4 25 -6 9 -7 62 -3 122 1 7
7 11 15 8 10 -4 13 -1 9 9 -3 9 -12 13 -21 9 -12 -4 -13 -3 -2 10 10 12 16 13
26 4 9 -7 14 -8 14 -1 0 11 -28 24 -39 17 -4 -2 -8 1 -8 8 0 7 -4 20 -8 30 -4
10 -3 17 5 17 6 0 8 -5 4 -12 -4 -6 -3 -8 3 -5 14 9 8 53 -7 49 -10 -2 -10 1
1 14 13 15 11 16 -11 11 -14 -4 -19 -4 -12 -1 6 3 12 10 12 15 0 6 -5 7 -11 3
-8 -5 -8 -1 0 13 7 14 7 23 -1 31 -8 8 -8 15 2 27 7 8 15 13 18 10 3 -2 -1
-11 -7 -19 -9 -10 -9 -16 -1 -21 6 -4 14 -4 17 -1 4 3 1 6 -7 6 -10 0 -10 3 0
15 12 14 5 39 -9 31 -4 -3 -13 -1 -21 5 -12 7 -10 9 8 9 14 0 20 4 17 10 -4 6
-1 18 7 27 9 12 9 15 1 9 -8 -4 -13 -2 -13 5 0 9 -4 8 -17 -1 -10 -7 -1 4 20
23 26 24 34 37 26 43 -7 4 -10 3 -6 -3 4 -6 -4 -10 -18 -10 -14 0 -28 3 -31 8
-3 5 3 6 13 2 16 -6 17 -5 3 13 -14 17 -14 18 2 6 11 -9 18 -10 23 -2 3 6 11
7 17 4 6 -4 8 -2 5 3 -8 13 17 35 29 25 4 -4 2 1 -5 11 -13 16 -26 15 -26 -1
0 -14 -17 -32 -28 -32 -7 0 -6 4 3 10 13 8 13 12 1 32 -13 21 -13 22 2 9 13
-10 17 -10 17 -1 0 7 6 10 14 7 8 -3 22 3 32 14 10 11 24 17 33 14 8 -3 18 0
23 7 6 8 7 4 2 -12 -6 -22 -5 -23 9 -11 9 7 15 16 12 20 -4 8 21 7 45 -2 31
-11 85 -17 70 -8 -8 6 -11 13 -7 17 4 4 15 0 25 -9 18 -16 20 -16 37 3 l18 20
19 -20 c20 -22 38 -26 38 -9 0 5 -4 8 -8 5 -4 -2 -14 4 -21 16 -10 16 -10 19
1 12 20 -14 86 -18 128 -10 14 3 19 3 13 0 -18 -8 -16 -21 2 -21 8 0 15 7 15
14 0 11 6 10 30 -4 23 -13 33 -14 42 -5 9 9 6 11 -11 7 -12 -2 -19 0 -16 6 4
5 1 9 -6 9 -7 0 -9 3 -6 6 4 4 13 1 22 -6 10 -8 15 -9 15 -1 0 6 5 11 11 11 5
0 8 -4 4 -9 -3 -5 -1 -12 4 -16 5 -3 15 3 21 12 11 17 11 17 6 0 -3 -10 -2
-15 3 -12 5 3 13 1 16 -5 4 -7 11 -8 18 -1 12 9 18 11 37 11 6 0 10 5 10 11 0
8 -4 8 -14 0 -11 -9 -15 -8 -20 5 -4 9 -4 19 -1 22 3 3 5 0 5 -6 0 -10 27 -11
50 -2 3 2 8 2 13 1 4 0 7 5 7 12 0 8 3 8 9 -2 5 -8 7 -21 5 -30 -2 -9 2 -3 9
13 13 27 14 27 20 7 6 -24 27 -29 27 -6 0 8 -4 15 -10 15 -5 0 -10 5 -10 10 0
6 10 4 23 -5 13 -8 27 -12 32 -8z m610 13 c-3 -5 -12 -10 -18 -10 -7 0 -6 4 3
10 19 12 23 12 15 0z m-2730 -9 c3 -5 2 -12 -3 -15 -5 -3 -9 1 -9 9 0 17 3 19
12 6z m1557 -39 c-7 -2 -9 -9 -6 -14 4 -7 2 -8 -4 -4 -6 4 -9 13 -6 21 4 8 11
12 17 8 8 -5 7 -8 -1 -11z m370 4 c7 4 8 2 4 -5 -9 -13 -26 -5 -25 12 0 9 2 8
6 -1 2 -6 10 -9 15 -6z m-439 -8 c-2 -5 -10 -8 -18 -8 -8 0 -16 3 -18 8 -3 4
5 7 18 7 13 0 21 -3 18 -7z m-1513 -10 c0 -4 -7 -8 -15 -8 -8 0 -15 4 -15 8 0
5 7 9 15 9 8 0 15 -4 15 -9z m559 -41 c14 4 14 3 1 -6 -8 -6 -12 -11 -7 -12
24 -5 33 -4 39 5 4 6 11 6 20 -1 7 -6 23 -9 36 -8 14 1 22 -4 23 -14 0 -10 4
-8 9 7 7 17 16 21 34 18 26 -5 67 -25 52 -26 -5 0 -1 -10 10 -22 10 -12 14
-18 7 -15 -6 4 -14 3 -18 -3 -3 -5 3 -10 14 -10 23 0 28 -15 9 -26 -7 -5 -8
-3 -3 7 7 11 6 12 -7 2 -8 -7 -19 -9 -24 -5 -5 4 -5 3 -1 -3 5 -5 12 -9 15 -8
4 1 13 -4 21 -10 12 -10 13 -9 6 2 -5 9 -4 12 2 8 9 -6 10 -22 4 -61 0 -5 -9
-2 -18 5 -16 13 -17 12 -4 -4 11 -14 16 -15 29 -5 13 11 14 10 4 -9 -13 -23
-7 -32 19 -28 20 3 19 -22 -2 -37 -10 -7 -6 -8 16 -4 17 3 24 3 17 0 -6 -3
-10 -10 -6 -15 3 -5 1 -9 -5 -9 -6 0 -8 -7 -5 -15 4 -8 10 -15 16 -15 5 0 6 6
2 13 -4 7 -3 9 2 4 5 -5 9 -12 9 -15 2 -19 19 -59 34 -77 15 -18 15 -19 -1 -6
-13 10 -18 10 -18 2 0 -7 -4 -10 -8 -7 -4 2 -8 -8 -7 -24 0 -16 2 -28 5 -28
20 1 30 -4 30 -17 0 -8 -5 -15 -11 -15 -5 0 -7 5 -4 10 3 6 1 10 -5 10 -7 0
-9 -7 -6 -16 4 -9 2 -22 -4 -29 -8 -9 -6 -14 6 -19 9 -3 19 -4 23 -2 4 3 7 -9
7 -27 -1 -23 3 -31 13 -29 10 2 12 -1 5 -10 -12 -15 -12 -28 -1 -45 6 -9 3
-11 -8 -7 -10 4 -14 13 -10 22 3 9 2 13 -2 8 -4 -4 -8 -18 -8 -29 0 -14 -5
-21 -14 -19 -11 2 -12 0 -3 -11 7 -8 8 -18 4 -22 -4 -5 -2 -6 3 -2 6 3 21 -1
35 -9 25 -14 25 -14 -8 -10 -32 4 -33 3 -18 -13 9 -9 14 -27 11 -39 -2 -13 0
-20 5 -17 12 7 7 -58 -5 -67 -5 -4 0 -6 12 -5 17 1 19 4 11 14 -7 9 -7 13 1
13 6 0 11 -5 11 -11 0 -5 6 -7 13 -3 10 6 10 4 0 -7 -15 -15 -17 -33 -4 -24
10 6 8 -16 -5 -50 -7 -17 -6 -18 8 -7 13 10 18 10 24 1 4 -8 3 -9 -4 -5 -8 5
-12 0 -12 -13 0 -11 -4 -23 -10 -26 -5 -3 -10 -12 -10 -18 0 -8 3 -9 8 -1 9
13 54 26 46 13 -3 -5 -12 -9 -20 -9 -14 0 -13 -2 0 -16 18 -18 21 -40 6 -49
-13 -8 10 -45 28 -45 8 0 10 -5 6 -12 -5 -8 -2 -9 12 -4 10 4 15 4 11 0 -4 -5
3 -14 15 -21 13 -7 17 -12 10 -13 -7 0 -10 -5 -6 -12 4 -7 3 -8 -5 -4 -6 4 -9
12 -6 17 4 5 2 9 -4 9 -5 0 -9 -8 -8 -18 1 -15 8 -18 34 -16 18 1 30 -2 27 -7
-3 -5 -1 -16 4 -25 8 -15 10 -15 15 0 5 12 3 15 -6 10 -9 -5 -9 -4 0 6 9 10
15 10 26 2 8 -7 16 -9 19 -6 3 3 9 1 12 -5 4 -6 -3 -8 -19 -5 -14 2 -25 0 -25
-5 0 -13 29 -35 37 -27 3 3 1 6 -6 6 -7 0 -9 5 -6 10 4 6 10 8 15 5 16 -10 22
16 8 33 -12 15 -11 16 4 4 13 -10 17 -10 20 0 3 8 7 6 11 -6 5 -12 3 -15 -6
-10 -8 6 -8 3 1 -8 14 -18 42 -14 42 5 0 8 3 8 11 0 6 -6 18 -9 27 -6 11 5 13
3 7 -7 -5 -9 -4 -11 4 -6 6 4 9 12 6 17 -3 5 1 6 10 3 10 -4 15 -2 13 6 -2 7
4 15 12 17 12 4 12 3 1 -5 -10 -7 -10 -11 -1 -17 13 -8 41 25 32 40 -3 5 2 4
11 -4 9 -7 17 -10 17 -6 0 5 9 0 20 -10 11 -10 20 -15 20 -10 0 4 7 2 16 -6
13 -10 17 -10 25 2 5 8 9 18 9 22 0 5 10 1 21 -7 12 -8 28 -12 35 -9 8 3 14 0
14 -7 0 -6 -4 -9 -9 -6 -5 3 -15 -2 -22 -12 -13 -15 -12 -16 4 -3 9 7 17 10
17 5 0 -4 5 -3 11 3 13 13 39 6 39 -9 0 -7 -5 -7 -13 0 -10 8 -13 6 -14 -11
-2 -14 1 -17 6 -9 5 9 12 4 22 -15 8 -16 22 -34 32 -41 9 -7 17 -19 17 -25 0
-7 -4 -6 -10 3 -8 12 -10 10 -10 -8 0 -16 -4 -21 -12 -16 -10 5 -10 4 -1 -6
10 -10 10 -17 1 -29 -10 -13 -10 -14 2 -3 8 6 23 12 35 11 19 0 19 -1 -2 -9
-23 -10 -32 -30 -12 -30 5 0 7 4 4 10 -4 6 1 7 11 3 12 -4 14 -8 6 -11 -10 -3
-10 -7 0 -20 10 -12 10 -14 1 -8 -8 4 -13 1 -13 -9 0 -9 4 -14 8 -11 5 3 9 -1
9 -9 0 -8 -3 -14 -6 -13 -19 2 -21 -4 -7 -18 18 -17 21 -44 6 -44 -5 0 -7 6
-4 14 5 14 -32 43 -43 33 -2 -3 5 -8 16 -12 12 -3 21 -11 21 -16 0 -6 -4 -8
-8 -5 -5 3 -9 -1 -9 -8 0 -7 6 -13 14 -14 7 -1 19 -3 26 -4 16 -2 20 -38 5
-38 -7 0 -7 -4 0 -12 5 -7 8 -26 6 -41 -2 -24 0 -26 12 -16 9 7 14 8 14 1 0
-18 -24 -20 -45 -3 -17 14 -18 14 -7 0 6 -9 8 -20 4 -24 -4 -5 -2 -5 5 -1 7 4
17 -3 24 -16 12 -22 11 -22 -6 -8 -11 9 -16 10 -11 2 11 -19 18 -64 8 -58 -5
3 -9 -1 -9 -9 0 -11 3 -12 14 -3 8 6 12 17 9 25 -3 7 -1 13 5 13 7 0 9 -10 5
-26 -5 -18 -3 -24 5 -18 8 4 9 3 5 -5 -4 -6 -11 -9 -16 -6 -5 3 -12 0 -16 -6
-4 -8 -3 -9 4 -5 7 4 12 3 12 -3 0 -5 -5 -11 -12 -13 -7 -3 -5 -7 6 -11 9 -4
15 -3 11 2 -3 5 -1 12 4 15 5 3 7 -8 6 -24 -1 -17 1 -30 6 -30 5 0 7 -10 5
-22 -2 -13 4 -32 13 -43 16 -20 16 -20 -6 -2 -12 11 -20 27 -18 38 2 11 0 17
-5 14 -12 -8 -1 -66 15 -77 14 -10 -38 -4 -54 6 -11 7 -11 4 -1 -14 9 -16 14
-19 20 -10 5 9 9 9 14 1 7 -11 -6 -15 -33 -12 -8 2 -10 -3 -6 -11 3 -7 -3 -2
-15 12 -19 22 -22 22 -18 5 1 -11 7 -23 13 -27 5 -4 -4 -6 -20 -4 -35 4 -77
-13 -68 -27 3 -6 1 -7 -6 -3 -6 4 -9 11 -6 16 3 4 -1 10 -7 13 -10 3 -10 8 2
23 14 18 14 18 -3 5 -11 -9 -15 -21 -12 -35 6 -20 5 -20 -9 -3 -10 13 -16 15
-22 6 -5 -9 -11 -7 -21 6 -12 18 -14 17 -16 -15 0 -10 -37 -40 -37 -30 0 20
-2 25 -12 38 -9 10 -14 9 -28 -3 -9 -8 -20 -12 -25 -8 -4 5 -5 3 -2 -4 4 -6 1
-13 -5 -16 -20 -6 -39 4 -31 17 4 6 -1 5 -10 -3 -9 -7 -18 -11 -18 -7 -1 3 -2
10 -3 15 0 5 -5 13 -10 18 -5 5 -6 3 -2 -4 4 -7 2 -14 -3 -14 -26 -3 -30 -4
-36 -11 -4 -4 5 -5 21 -3 16 2 23 2 16 -1 -6 -3 -10 -10 -7 -14 3 -5 1 -12 -5
-15 -6 -4 -9 -1 -8 6 4 16 -22 19 -41 5 -11 -8 -13 -8 -7 2 6 11 -5 17 -26 13
-13 -2 -9 17 5 22 6 2 18 -3 25 -12 11 -14 11 -13 2 6 -9 20 -13 21 -36 11
-13 -6 -23 -17 -20 -24 3 -9 -1 -11 -11 -7 -9 3 -28 7 -42 8 -20 1 -25 6 -23
21 3 17 2 17 -12 -3 -15 -20 -38 -25 -52 -10 -15 15 -26 6 -13 -10 13 -16 12
-17 -3 -5 -10 8 -16 19 -15 25 1 7 -5 10 -13 9 -43 -10 -50 -10 -44 0 5 7 0 9
-14 6 -16 -5 -19 -2 -15 11 4 9 3 13 -2 9 -4 -4 -16 -3 -26 3 -11 5 -19 6 -18
2 4 -27 -2 -33 -21 -23 -12 6 -20 7 -20 1 0 -5 6 -11 13 -14 6 -2 -6 -3 -28
-2 -22 2 -41 3 -42 4 -2 0 -5 0 -6 -1 -2 -2 -11 3 -20 11 -12 9 -17 10 -17 2
0 -6 10 -16 23 -21 15 -6 17 -9 6 -9 -22 -1 -43 25 -36 43 4 11 1 13 -10 9
-12 -5 -14 -3 -8 7 6 9 4 11 -4 5 -9 -5 -10 -10 -2 -18 16 -16 13 -27 -6 -20
-10 4 -14 2 -9 -5 3 -6 1 -14 -5 -18 -8 -4 -9 -3 -5 4 11 19 -27 30 -76 22
-38 -5 -48 -4 -48 7 0 8 -4 12 -9 8 -5 -3 -16 2 -25 10 -8 8 -19 14 -25 13 -5
-2 -17 6 -26 17 -16 19 -16 18 -1 -7 14 -24 14 -27 1 -22 -8 4 -15 12 -15 20
0 7 -10 20 -22 28 -12 9 -18 16 -13 16 5 0 0 7 -11 16 -18 15 -18 15 3 5 12
-6 23 -16 25 -23 3 -7 7 -4 12 7 4 11 4 16 0 13 -9 -10 -32 15 -27 29 3 7 10
10 17 6 7 -4 7 -1 -1 8 -10 13 -10 19 2 35 8 10 15 23 15 28 0 6 -6 2 -13 -8
-12 -16 -17 -17 -33 -7 -15 10 -15 11 -2 7 10 -3 20 -1 23 4 4 6 2 10 -4 10
-5 0 -8 8 -7 18 2 9 -4 23 -13 30 -10 8 -2 7 19 -3 34 -16 35 -16 14 2 -11 10
-20 27 -18 37 2 13 -2 16 -14 12 -15 -5 -14 -4 1 8 16 13 16 15 2 30 -9 9 -13
16 -8 16 5 0 15 -6 22 -12 10 -11 11 -10 6 5 -4 9 -17 18 -29 18 -20 2 -20 2
1 6 19 4 21 8 12 24 -5 11 -14 17 -19 14 -5 -3 -12 -1 -15 5 -4 6 -3 10 2 9
20 -3 24 2 13 17 -8 8 -9 14 -4 13 21 -4 24 2 13 22 -8 15 -8 19 0 15 15 -10
14 7 -1 24 -7 8 -3 6 10 -5 17 -14 23 -16 20 -5 -2 8 -9 19 -16 25 -10 8 -7
17 13 45 25 34 35 58 12 30 -7 -8 -21 -22 -32 -30 -19 -14 -20 -14 -2 6 19 23
23 39 6 28 -6 -3 -3 5 6 20 20 30 30 35 15 6 -8 -16 -8 -18 4 -14 8 3 13 13
11 22 -1 9 3 24 9 32 7 10 3 9 -10 -2 -25 -22 -31 -22 -31 -3 0 8 4 12 9 9 4
-3 8 2 8 10 0 9 5 16 12 16 6 0 8 3 5 6 -4 4 -13 1 -22 -6 -9 -7 -18 -10 -22
-6 -3 3 -1 6 5 6 7 0 12 5 12 11 0 5 -4 7 -10 4 -5 -3 -7 0 -4 8 3 8 15 19 27
25 21 11 21 11 -5 7 -21 -3 -26 0 -21 12 4 9 2 14 -3 10 -5 -3 -10 3 -10 14 0
19 1 19 16 -1 15 -20 16 -20 16 -1 0 11 -5 17 -10 14 -5 -4 -7 3 -4 14 3 11 1
28 -4 37 -6 11 -5 16 4 16 9 0 9 3 -2 10 -8 5 -12 10 -7 10 4 0 0 11 -9 25
-15 23 -15 25 0 25 9 0 16 5 16 11 0 6 -7 9 -15 6 -18 -8 -32 13 -15 23 6 4
11 10 11 14 -1 3 -1 16 -1 29 0 16 3 18 9 8 6 -9 8 -4 8 17 -2 27 -12 36 -12
9 0 -5 -6 -12 -12 -14 -15 -5 -17 13 -3 22 14 9 12 55 -2 55 -8 0 -9 3 -3 8
14 10 17 32 4 32 -5 0 -7 5 -4 10 4 6 11 7 17 4 7 -4 7 0 -1 13 -7 14 -7 23 0
30 7 7 3 10 -14 8 -19 -2 -24 1 -22 13 2 10 4 17 6 17 1 0 3 10 4 23 1 12 -2
22 -6 22 -5 0 -9 5 -9 11 0 5 3 8 8 6 4 -3 13 1 20 9 7 8 8 14 3 14 -6 0 -9 6
-7 13 1 6 1 9 -1 4 -3 -4 -10 -4 -16 0 -7 4 -5 -2 3 -13 8 -10 10 -16 6 -12
-5 4 -15 3 -22 -3 -9 -7 -12 -6 -10 5 1 9 5 19 9 22 10 11 9 36 -2 30 -5 -3
-14 1 -21 9 -9 10 -9 15 -1 15 6 0 11 -5 11 -12 0 -6 3 -8 7 -5 3 4 13 1 22
-6 14 -10 14 -10 3 5 -8 9 -11 22 -8 27 4 5 1 13 -5 17 -8 4 -9 3 -5 -4 4 -7
2 -12 -3 -12 -14 0 -14 17 -1 25 5 3 15 16 21 28 l11 22 -21 -22 c-25 -26 -27
-27 -37 -11 -4 6 -3 8 4 4 12 -7 21 4 27 34 2 11 0 18 -6 15 -5 -4 -9 1 -9 10
0 10 -5 13 -12 9 -10 -6 -10 -5 -1 8 7 8 9 19 5 23 -4 5 0 5 8 0 8 -5 12 -5 8
0 -4 4 -3 16 2 25 8 16 6 18 -15 15 -14 -1 -28 2 -32 8 -3 6 -1 7 5 3 7 -4 12
-3 12 3 0 6 8 8 18 4 11 -3 9 0 -6 11 -12 10 -19 22 -16 28 5 7 1 9 -9 5 -23
-9 -21 0 2 13 17 9 19 7 16 -10 -2 -11 0 -18 6 -15 5 4 9 1 9 -4 0 -6 5 -11
12 -11 6 0 3 9 -7 20 -16 18 -14 24 7 21 11 -1 2 33 -10 37 -7 2 -9 9 -6 14 5
7 2 8 -6 3 -10 -6 -9 -11 4 -21 11 -8 13 -14 7 -19 -6 -3 -14 1 -17 10 -6 13
-8 14 -15 3 -6 -9 -9 -9 -9 -1 0 6 5 15 10 18 6 3 10 11 10 16 0 6 -4 8 -8 5
-4 -2 -8 6 -8 19 0 13 3 22 7 19 4 -2 10 0 13 5 4 5 -2 12 -11 14 -14 4 -13 5
5 6 24 1 28 11 10 29 -9 9 -7 13 5 18 14 5 12 10 -11 31 -15 14 -19 20 -9 13
9 -7 17 -9 17 -4 0 5 5 2 10 -6 7 -10 10 -11 10 -2 0 7 -7 15 -15 18 -8 4 -15
11 -15 16 0 6 12 2 28 -7 l27 -18 -25 27 c-18 20 -20 25 -7 20 13 -5 16 -2 11
12 -5 15 -4 16 4 4 6 -8 9 -17 6 -21 -2 -4 3 -9 11 -12 9 -4 12 -1 9 7 -3 7 3
19 12 27 14 12 19 10 37 -11 13 -16 18 -19 14 -7 -7 20 3 22 23 5 12 -11 12
-10 0 5 -7 10 -19 16 -27 13 -8 -4 -11 -1 -8 5 4 6 13 8 21 5 7 -3 16 -1 19 4
4 6 12 10 18 9 9 0 9 -2 0 -6 -7 -2 -13 -9 -13 -14 0 -5 13 -3 29 5 26 14 30
14 42 -1 12 -14 12 -16 0 -8 -9 5 -12 4 -7 -3 4 -6 13 -9 21 -5 8 3 15 -1 15
-8 0 -7 3 -9 7 -6 3 4 -4 19 -18 35 -13 15 -18 22 -10 15 7 -6 21 -9 30 -6z
m1821 -61 c0 -2 -7 -7 -16 -10 -8 -3 -12 -2 -9 4 6 10 25 14 25 6z m-1105 -36
c-3 -5 -14 -10 -23 -9 -14 0 -13 2 3 9 27 11 27 11 20 0z m-980 -22 c5 4 5 1
1 -6 -6 -10 -11 -10 -22 -1 -8 6 -14 14 -14 16 0 3 6 0 13 -6 8 -6 18 -7 22
-3z m-1 -36 c3 -5 -1 -9 -9 -9 -8 0 -15 4 -15 9 0 4 4 8 9 8 6 0 12 -4 15 -8z
m546 -46 c0 -2 -7 -7 -16 -10 -8 -3 -12 -2 -9 4 6 10 25 14 25 6z m1998 -43
c-8 -10 -13 -25 -10 -33 2 -8 2 -12 -2 -9 -10 9 -16 50 -7 44 5 -3 11 2 14 10
4 9 1 12 -9 8 -7 -3 -14 -1 -14 4 0 19 14 23 29 9 13 -14 13 -17 -1 -33z
m-2818 22 c-11 -13 -10 -18 5 -29 15 -11 15 -13 2 -13 -9 0 -18 6 -21 14 -7
17 3 43 16 43 6 0 5 -7 -2 -15z m8 -85 c1 -16 -1 -30 -6 -30 -6 0 -9 46 -3 58
4 8 7 -2 9 -28z m2792 -25 c-7 -8 -18 -15 -24 -15 -6 0 -2 7 8 15 25 19 32 19
16 0z m-1535 -15 c-3 -5 -12 -10 -18 -10 -7 0 -6 4 3 10 19 12 23 12 15 0z
m-975 -50 c0 -5 -4 -10 -10 -10 -5 0 -10 5 -10 10 0 6 5 10 10 10 6 0 10 -4
10 -10z m610 -26 c0 -2 -9 -4 -21 -4 -11 0 -18 4 -14 10 5 8 35 3 35 -6z
m1577 -22 c-9 -2 -14 -8 -11 -14 4 -7 2 -8 -4 -4 -17 11 -3 36 16 28 16 -6 15
-7 -1 -10z m13 -31 c0 -5 -7 -12 -16 -15 -14 -5 -15 -4 -4 9 14 17 20 19 20 6z
m-2460 -21 c0 -5 -7 -7 -15 -4 -8 4 -15 8 -15 10 0 2 7 4 15 4 8 0 15 -4 15
-10z m265 0 c-3 -5 -12 -10 -18 -10 -7 0 -6 4 3 10 19 12 23 12 15 0z m595
-15 c-7 -9 -15 -13 -19 -10 -3 3 1 10 9 15 21 14 24 12 10 -5z m1600 -5 c0 -5
-2 -10 -4 -10 -3 0 -8 5 -11 10 -3 6 -1 10 4 10 6 0 11 -4 11 -10z m298 -29
c11 -6 11 -10 0 -18 -23 -17 -44 -25 -23 -8 17 14 18 17 5 25 -8 5 -10 10 -5
10 6 0 16 -4 23 -9z m-1883 -131 c-3 -5 -1 -10 6 -10 7 0 10 -2 7 -5 -8 -9
-38 6 -32 16 3 5 10 9 15 9 6 0 7 -4 4 -10z m382 -26 c-3 -3 -12 -4 -19 -1 -8
3 -5 6 6 6 11 1 17 -2 13 -5z m-351 -56 c4 -6 3 -8 -4 -4 -6 3 -13 2 -17 -4
-3 -5 -2 -10 3 -10 6 0 13 -8 16 -17 6 -15 4 -15 -14 2 -15 14 -17 21 -9 32
14 16 16 16 25 1z m-893 -13 c-3 -9 -8 -14 -10 -11 -3 3 -2 9 2 15 9 16 15 13
8 -4z m292 -16 c11 -16 1 -19 -13 -3 -7 8 -8 14 -3 14 5 0 13 -5 16 -11z
m2435 -93 c-7 -7 -13 -7 -20 0 -6 6 -3 10 10 10 13 0 16 -4 10 -10z m-1255
-16 c3 -5 1 -10 -4 -10 -6 0 -11 5 -11 10 0 6 2 10 4 10 3 0 8 -4 11 -10z
m-1468 -17 c0 -9 -4 -10 -14 -2 -7 6 -13 12 -13 14 0 1 6 2 13 2 8 0 14 -6 14
-14z m1763 -37 c0 -3 -4 -8 -10 -11 -5 -3 -10 -1 -10 4 0 6 5 11 10 11 6 0 10
-2 10 -4z m696 -53 c-3 -4 -6 -1 -6 6 0 7 -4 9 -10 6 -6 -4 -7 1 -3 11 6 15 7
15 15 -1 6 -9 7 -19 4 -22z m-461 8 c3 -5 0 -13 -7 -18 -19 -11 -39 -13 -32
-2 3 5 10 6 16 3 7 -5 9 -1 5 9 -7 18 8 24 18 8z m-1043 -69 c-19 -6 -14 -19
10 -25 12 -4 19 -9 15 -13 -3 -4 -18 1 -32 10 -21 14 -23 19 -13 30 7 8 17 11
23 8 5 -3 4 -7 -3 -10z m-647 -40 c-1 -9 2 -25 6 -34 6 -10 5 -19 -1 -23 -6
-4 -10 -3 -9 2 4 22 -2 34 -13 27 -10 -6 -10 -4 -2 7 14 19 11 45 -5 41 -7 -1
-10 2 -6 8 10 16 34 -7 30 -28z m1679 -8 c3 -8 2 -12 -4 -9 -6 3 -10 10 -10
16 0 14 7 11 14 -7z m-1975 -55 c-22 -13 -31 -11 -17 5 7 8 17 12 22 9 4 -3 2
-9 -5 -14z m1366 1 c4 -6 10 -8 14 -6 4 3 8 -1 8 -9 0 -10 -4 -12 -12 -5 -7 5
-16 6 -20 2 -5 -4 -5 -2 -2 5 4 6 1 14 -5 16 -9 4 -10 6 -1 6 6 1 15 -4 18 -9z
m600 1 c3 -5 2 -12 -3 -15 -5 -3 -9 1 -9 9 0 17 3 19 12 6z m483 -27 c-4 -3
-12 5 -18 18 -12 22 -12 22 6 6 10 -10 15 -20 12 -24z m-1249 7 c7 -5 9 -11 5
-14 -5 -3 -15 1 -22 9 -14 16 -5 18 17 5z m340 -25 c-3 -3 -11 5 -18 17 -13
21 -12 21 5 5 10 -10 16 -20 13 -22z m1155 19 c3 -8 1 -15 -4 -15 -6 0 -10 7
-10 15 0 8 2 15 4 15 2 0 6 -7 10 -15z m-1543 -18 c-10 -9 -11 -8 -5 6 3 10 9
15 12 12 3 -3 0 -11 -7 -18z m843 -28 c-3 -5 -10 -7 -15 -3 -5 3 -7 10 -3 15
3 5 10 7 15 3 5 -3 7 -10 3 -15z m-450 -1 c-3 -4 -9 -8 -15 -8 -5 0 -9 4 -9 8
0 5 7 9 15 9 8 0 12 -4 9 -9z m7 -31 c-10 -9 -11 -8 -5 6 3 10 9 15 12 12 3
-3 0 -11 -7 -18z m449 7 c0 -8 -19 -13 -24 -6 -3 5 1 9 9 9 8 0 15 -2 15 -3z
m-1980 -8 c0 -3 -4 -8 -10 -11 -5 -3 -10 -1 -10 4 0 6 5 11 10 11 6 0 10 -2
10 -4z m1560 -70 c0 -2 -7 -7 -16 -10 -8 -3 -12 -2 -9 4 6 10 25 14 25 6z
m-1550 -14 c0 -5 -7 -9 -15 -9 -8 0 -12 4 -9 9 3 4 9 8 15 8 5 0 9 -4 9 -8z
m2395 -61 c-3 -5 -1 -12 5 -16 5 -3 10 -11 10 -18 0 -6 -6 -2 -14 8 -13 18
-13 35 0 35 3 0 3 -4 -1 -9z m-2381 -43 c-7 -11 -34 -10 -34 2 0 5 7 7 15 4
11 -5 14 -1 9 12 -5 15 -4 16 4 4 6 -8 8 -18 6 -22z m2691 -38 c-3 -5 -11 -10
-16 -10 -6 0 -7 5 -4 10 3 6 11 10 16 10 6 0 7 -4 4 -10z m-2666 -67 c2 -2 0
-3 -6 -3 -6 0 -21 9 -34 21 l-24 20 30 -17 c17 -10 32 -19 34 -21z m2361 -33
c0 -5 -7 -7 -15 -4 -8 4 -15 8 -15 10 0 2 7 4 15 4 8 0 15 -4 15 -10z m7 -122
c-3 -8 -6 -5 -6 6 -1 11 2 17 5 13 3 -3 4 -12 1 -19z m-2357 8 c0 -2 -7 -7
-16 -10 -8 -3 -12 -2 -9 4 6 10 25 14 25 6z m2667 -39 c0 -7 -8 -14 -18 -14
-15 -1 -16 1 -6 12 15 18 24 19 24 2z m-2427 -81 c0 -2 -7 -7 -16 -10 -8 -3
-12 -2 -9 4 6 10 25 14 25 6z m-5 -26 c-3 -5 -12 -10 -18 -10 -7 0 -6 4 3 10
19 12 23 12 15 0z m2480 -60 c-3 -5 -12 -10 -18 -10 -7 0 -6 4 3 10 19 12 23
12 15 0z m-2350 -108 c4 -12 0 -10 -15 6 -12 12 -25 20 -31 17 -5 -4 -9 1 -9
10 0 14 2 14 24 0 13 -9 27 -24 31 -33z m99 10 c3 -5 -1 -9 -9 -9 -8 0 -12 4
-9 9 3 4 7 8 9 8 2 0 6 -4 9 -8z m277 -20 c-7 -2 -18 1 -23 6 -8 8 -4 9 13 5
13 -4 18 -8 10 -11z m503 -3 c-3 -5 -11 -7 -17 -3 -7 3 -3 -2 8 -11 12 -11 14
-16 5 -13 -8 3 -21 -2 -28 -11 -11 -14 -11 -14 -5 3 5 15 3 17 -8 11 -8 -5 -3
4 10 18 22 24 49 29 35 6z m88 6 c16 0 15 -11 -2 -12 -10 -1 -21 5 -24 13 -4
10 -2 13 7 7 6 -4 15 -8 19 -8z m103 -5 c-3 -5 -12 -10 -18 -10 -7 0 -6 4 3
10 19 12 23 12 15 0z m-281 -21 c3 -3 -4 -5 -14 -6 -11 -1 -20 2 -20 7 0 8 25
8 34 -1z m1566 -65 c0 -8 -19 -13 -24 -6 -3 5 1 9 9 9 8 0 15 -2 15 -3z m-19
-28 c5 3 9 0 9 -6 0 -15 -23 -7 -26 8 -1 7 0 8 3 2 2 -5 9 -8 14 -4z m-434
-40 c0 -7 -9 -18 -19 -25 -13 -8 -18 -8 -18 0 0 8 -4 9 -13 0 -8 -6 -17 -8
-20 -5 -12 12 3 23 27 18 15 -2 26 2 30 11 7 19 13 19 13 1z m334 -19 c-10 -9
-11 -8 -5 6 3 10 9 15 12 12 3 -3 0 -11 -7 -18z m-1096 -7 c3 -5 1 -10 -4 -10
-6 0 -11 5 -11 10 0 6 2 10 4 10 3 0 8 -4 11 -10z m-475 -10 c0 -5 -5 -10 -11
-10 -5 0 -7 5 -4 10 3 6 8 10 11 10 2 0 4 -4 4 -10z m-85 -12 c5 4 5 1 1 -6
-6 -10 -11 -10 -22 -1 -8 6 -14 14 -14 16 0 3 6 0 13 -6 8 -6 18 -7 22 -3z
m-342 -21 c3 -8 -1 -14 -8 -14 -7 0 -11 6 -8 14 3 7 6 13 8 13 2 0 5 -6 8 -13z
m-229 -25 c3 -5 -1 -9 -9 -9 -8 0 -12 4 -9 9 3 4 7 8 9 8 2 0 6 -4 9 -8z
m1186 -40 c-7 -3 -7 -9 1 -18 6 -8 9 -14 5 -14 -3 0 -9 0 -13 0 -5 0 -9 5 -9
10 -1 6 -2 11 -4 13 -1 1 -3 10 -5 19 -3 14 0 15 16 5 11 -7 14 -14 9 -15z
m384 -147 c-4 -8 -8 -15 -10 -15 -2 0 -4 7 -4 15 0 8 4 15 10 15 5 0 7 -7 4
-15z m-359 -154 c3 -5 2 -12 -3 -15 -5 -3 -9 1 -9 9 0 17 3 19 12 6z m362 -26
c0 -8 -4 -15 -9 -15 -10 0 -11 14 -1 23 9 10 10 9 10 -8z m3 -59 c0 -2 -7 -7
-16 -10 -8 -3 -12 -2 -9 4 6 10 25 14 25 6z m-353 -12 c-3 -3 -12 -4 -19 -1
-8 3 -5 6 6 6 11 1 17 -2 13 -5z m0 -90 c-3 -3 -12 -4 -19 -1 -8 3 -5 6 6 6
11 1 17 -2 13 -5z m-2 -24 c3 -6 -1 -7 -9 -4 -18 7 -21 14 -7 14 6 0 13 -4 16
-10z m355 6 c0 -3 -4 -8 -10 -11 -5 -3 -10 -1 -10 4 0 6 5 11 10 11 6 0 10 -2
10 -4z m-3 -131 c0 -8 -4 -12 -9 -9 -4 3 -8 9 -8 15 0 5 4 9 8 9 5 0 9 -7 9
-15z m-272 -63 c-3 -3 -11 0 -18 7 -9 10 -8 11 6 5 10 -3 15 -9 12 -12z m55
-53 c0 -8 6 -7 18 2 15 13 16 12 3 -4 -10 -13 -17 -15 -27 -6 -17 14 -18 19
-4 19 6 0 10 -5 10 -11z m60 -13 c0 -2 -7 -6 -15 -10 -8 -3 -15 -1 -15 4 0 6
7 10 15 10 8 0 15 -2 15 -4z m70 -26 c0 -5 -2 -10 -4 -10 -3 0 -8 5 -11 10 -3
6 -1 10 4 10 6 0 11 -4 11 -10z"/>
<path d="M2993 3497 c-3 -6 -1 -7 5 -3 5 3 12 1 14 -6 3 -8 6 -7 10 3 7 17
-19 22 -29 6z"/>
<path d="M3235 3480 c-4 -6 -1 -9 7 -8 8 2 12 -5 11 -17 -1 -11 0 -15 3 -8 4
10 8 10 19 0 7 -7 11 -15 8 -19 -2 -5 4 -8 13 -8 14 0 10 8 -16 35 -38 40 -37
39 -45 25z"/>
<path d="M2585 3470 c-3 -5 -1 -10 4 -10 6 0 11 5 11 10 0 6 -2 10 -4 10 -3 0
-8 -4 -11 -10z"/>
<path d="M2657 3474 c7 -3 9 -13 6 -22 -4 -14 -3 -14 5 -2 12 16 7 30 -11 29
-9 0 -9 -2 0 -5z"/>
<path d="M2420 3460 c-16 -11 -15 -11 18 -15 18 -2 20 0 11 11 -13 16 -10 16
-29 4z"/>
<path d="M2710 3461 c0 -6 4 -13 10 -16 6 -3 7 1 4 9 -7 18 -14 21 -14 7z"/>
<path d="M2870 3460 c-13 -8 -12 -10 3 -10 9 0 17 5 17 10 0 12 -1 12 -20 0z"/>
<path d="M2330 3445 c-7 -8 -10 -18 -6 -22 3 -3 6 0 6 8 0 12 2 11 11 -1 9
-12 10 -11 5 5 l-6 20 16 -20 c15 -19 16 -19 12 -1 -4 25 -22 30 -38 11z"/>
<path d="M2613 3435 c0 -8 4 -12 9 -9 5 3 6 10 3 15 -9 13 -12 11 -12 -6z"/>
<path d="M2266 3312 c-3 -5 1 -9 9 -9 8 0 12 4 9 9 -3 4 -7 8 -9 8 -2 0 -6 -4
-9 -8z"/>
<path d="M2250 3151 c0 -17 21 -24 33 -12 9 9 7 10 -7 5 -13 -5 -17 -4 -12 4
4 7 2 12 -3 12 -6 0 -11 -4 -11 -9z"/>
<path d="M3396 3072 c-3 -5 1 -9 9 -9 8 0 12 4 9 9 -3 4 -7 8 -9 8 -2 0 -6 -4
-9 -8z"/>
<path d="M2270 3030 c0 -5 5 -10 10 -10 6 0 10 5 10 10 0 6 -4 10 -10 10 -5 0
-10 -4 -10 -10z"/>
<path d="M2275 2930 c-3 -5 -1 -10 4 -10 6 0 11 5 11 10 0 6 -2 10 -4 10 -3 0
-8 -4 -11 -10z"/>
<path d="M2276 2901 c-3 -5 2 -15 12 -22 15 -12 16 -12 5 2 -7 9 -10 19 -6 22
3 4 4 7 0 7 -3 0 -8 -4 -11 -9z"/>
<path d="M2275 2850 c-8 -13 9 -20 24 -11 10 6 9 10 -3 14 -8 3 -18 2 -21 -3z"/>
<path d="M3469 2813 c8 -16 8 -23 -2 -26 -9 -4 -9 -6 0 -6 20 -2 23 15 7 35
-14 18 -15 18 -5 -3z"/>
<path d="M2294 2812 c4 -7 1 -12 -8 -12 -9 0 -16 -4 -16 -10 0 -14 16 -12 29
4 9 11 9 16 0 22 -8 4 -9 3 -5 -4z"/>
<path d="M3485 2682 c-13 -9 -13 -27 -1 -39 5 -5 6 -3 2 5 -4 6 -3 12 2 12 5
0 9 7 9 15 0 8 -1 15 -1 15 -1 0 -6 -4 -11 -8z"/>
<path d="M2462 2567 c-7 -8 -7 -18 -2 -27 11 -16 11 -15 15 18 3 26 1 27 -13
9z"/>
<path d="M2591 2556 c-18 -21 7 -33 25 -12 8 9 9 11 2 6 -19 -15 -32 -12 -18
5 7 8 10 15 7 15 -2 0 -10 -6 -16 -14z"/>
<path d="M3456 2509 c4 -7 44 0 44 7 0 2 -11 3 -24 2 -14 -1 -23 -5 -20 -9z"/>
<path d="M3453 2455 c0 -8 4 -12 9 -9 5 3 6 10 3 15 -9 13 -12 11 -12 -6z"/>
<path d="M3476 2392 c-8 -13 0 -47 10 -43 5 1 7 8 5 15 -2 6 -4 17 -4 24 0 14
-4 15 -11 4z"/>
<path d="M3467 2323 c5 -12 3 -14 -8 -8 -8 5 -11 5 -6 -1 5 -5 12 -9 15 -9 4
0 13 -4 21 -9 8 -5 7 1 -4 18 -20 30 -27 34 -18 9z"/>
<path d="M3056 2264 c-5 -13 -4 -14 7 -6 8 7 17 9 20 5 4 -3 7 -1 7 5 0 18
-27 14 -34 -4z"/>
<path d="M3460 2129 c0 -5 5 -7 10 -4 6 3 10 8 10 11 0 2 -4 4 -10 4 -5 0 -10
-5 -10 -11z"/>
<path d="M3465 2101 c6 -11 4 -13 -8 -8 -9 3 -19 1 -23 -6 -4 -7 -4 -9 1 -5 4
4 16 3 25 -2 14 -7 18 -6 16 5 -1 8 -6 18 -11 22 -4 5 -5 2 0 -6z"/>
<path d="M3436 2017 c3 -10 9 -15 12 -12 3 3 0 11 -7 18 -10 9 -11 8 -5 -6z"/>
<path d="M3049 1975 c-1 -3 -3 -9 -4 -15 -1 -5 -3 -11 -5 -12 -7 -10 -6 -38 2
-38 6 0 8 7 4 15 -3 8 2 19 12 24 14 8 14 10 2 11 -13 0 -13 1 0 10 10 6 11
10 3 10 -7 0 -14 -2 -14 -5z"/>
<path d="M3434 1910 c0 -13 4 -16 10 -10 7 7 7 13 0 20 -6 6 -10 3 -10 -10z"/>
<path d="M3440 1645 c-7 -9 -8 -15 -2 -15 5 0 12 7 16 15 3 8 4 15 2 15 -2 0
-9 -7 -16 -15z"/>
<path d="M3441 1581 c-8 -5 -9 -11 -3 -15 5 -3 12 1 16 9 6 17 6 18 -13 6z"/>
<path d="M3195 1510 c3 -5 8 -10 11 -10 2 0 4 5 4 10 0 6 -5 10 -11 10 -5 0
-7 -4 -4 -10z"/>
<path d="M3226 1504 c-9 -24 -7 -27 9 -10 17 17 19 26 6 26 -5 0 -12 -7 -15
-16z"/>
<path d="M3260 1489 c0 -5 5 -7 10 -4 6 3 10 8 10 11 0 2 -4 4 -10 4 -5 0 -10
-5 -10 -11z"/>
<path d="M1474 3405 c-4 -8 -11 -12 -17 -8 -6 3 -7 1 -3 -5 10 -16 14 -15 26
8 6 11 8 20 5 20 -3 0 -8 -7 -11 -15z"/>
<path d="M1576 3401 c-4 -5 -2 -12 3 -15 5 -4 12 -2 15 3 4 5 2 12 -3 15 -5 4
-12 2 -15 -3z"/>
<path d="M1670 3395 c0 -8 4 -15 8 -15 5 0 9 7 9 15 0 8 -4 15 -9 15 -4 0 -8
-7 -8 -15z"/>
<path d="M1697 3404 c-7 -12 16 -37 38 -40 11 -2 12 2 2 17 -7 12 -14 14 -18
7 -4 -7 -8 -4 -11 8 -2 12 -6 15 -11 8z"/>
<path d="M1345 3390 c-3 -6 1 -7 9 -4 18 7 21 14 7 14 -6 0 -13 -4 -16 -10z"/>
<path d="M1550 3391 c0 -6 4 -13 10 -16 6 -3 7 1 4 9 -7 18 -14 21 -14 7z"/>
<path d="M1611 3384 c0 -11 3 -14 6 -6 3 7 2 16 -1 19 -3 4 -6 -2 -5 -13z"/>
<path d="M1750 3276 c0 -2 7 -6 15 -10 8 -3 15 -1 15 4 0 6 -7 10 -15 10 -8 0
-15 -2 -15 -4z"/>
<path d="M1753 3215 c0 -8 4 -12 9 -9 5 3 6 10 3 15 -9 13 -12 11 -12 -6z"/>
<path d="M1266 3211 c-3 -5 1 -12 10 -15 10 -4 13 -2 8 6 -5 8 -2 9 10 5 10
-4 15 -3 11 3 -8 12 -32 13 -39 1z"/>
<path d="M1790 3190 c-12 -7 -10 -9 7 -7 12 0 19 5 17 9 -6 10 -6 10 -24 -2z"/>
<path d="M1829 3072 c-13 -16 -12 -16 4 -3 17 13 18 13 15 -4 -1 -10 3 -19 10
-21 7 -1 8 0 3 2 -6 3 -8 11 -5 19 8 21 -12 27 -27 7z"/>
<path d="M1296 2978 c3 -5 10 -6 15 -3 13 9 11 12 -6 12 -8 0 -12 -4 -9 -9z"/>
<path d="M1855 2870 c3 -5 8 -10 11 -10 2 0 4 5 4 10 0 6 -5 10 -11 10 -5 0
-7 -4 -4 -10z"/>
<path d="M1877 2854 c-8 -8 3 -34 15 -34 7 0 6 5 -1 13 -6 8 -8 17 -4 20 3 4
4 7 1 7 -2 0 -7 -3 -11 -6z"/>
<path d="M1335 2720 c4 -6 2 -17 -5 -25 -7 -9 -8 -15 0 -20 5 -3 10 -5 11 -3
8 31 7 58 -1 58 -6 0 -8 -5 -5 -10z"/>
<path d="M1357 2593 c-5 -12 -3 -26 9 -47 10 -16 12 -16 17 -2 4 9 3 15 -1 15
-19 -3 -25 2 -12 11 11 7 11 10 2 10 -7 0 -10 5 -7 10 3 6 4 10 1 10 -3 0 -7
-3 -9 -7z"/>
<path d="M1910 2540 c0 -5 5 -10 11 -10 5 0 7 -5 3 -12 -4 -7 -3 -8 5 -4 9 6
9 11 0 22 -14 17 -19 18 -19 4z"/>
<path d="M1358 2433 c7 -3 16 -2 19 1 4 3 -2 6 -13 5 -11 0 -14 -3 -6 -6z"/>
<path d="M1345 2410 c-3 -6 1 -7 9 -4 18 7 21 14 7 14 -6 0 -13 -4 -16 -10z"/>
<path d="M1954 2390 c0 -13 4 -16 10 -10 7 7 7 13 0 20 -6 6 -10 3 -10 -10z"/>
<path d="M1998 2283 c7 -3 16 -2 19 1 4 3 -2 6 -13 5 -11 0 -14 -3 -6 -6z"/>
<path d="M2356 2242 c-3 -3 -6 -10 -6 -16 0 -6 5 -4 10 4 8 13 10 13 10 -2 0
-9 4 -19 9 -22 5 -4 7 4 4 16 -4 19 -3 20 7 8 9 -12 11 -12 8 -1 -4 15 -32 23
-42 13z"/>
<path d="M2473 2220 c1 -11 4 -20 8 -20 10 0 19 27 12 34 -12 12 -22 5 -20
-14z"/>
<path d="M2306 2212 c-3 -5 1 -9 9 -9 8 0 12 4 9 9 -3 4 -7 8 -9 8 -2 0 -6 -4
-9 -8z"/>
<path d="M2415 2210 c3 -5 8 -10 11 -10 2 0 4 5 4 10 0 6 -5 10 -11 10 -5 0
-7 -4 -4 -10z"/>
<path d="M2175 2190 c3 -5 8 -10 11 -10 2 0 4 5 4 10 0 6 -5 10 -11 10 -5 0
-7 -4 -4 -10z"/>
<path d="M1390 2170 c-9 -6 -10 -10 -3 -10 6 0 15 5 18 10 8 12 4 12 -15 0z"/>
<path d="M2610 1999 c0 -5 -5 -7 -11 -4 -6 4 -5 -2 3 -14 7 -12 17 -21 22 -21
4 0 4 6 -3 13 -8 10 -7 17 1 25 9 9 9 12 0 12 -7 0 -12 -5 -12 -11z"/>
<path d="M1379 1983 c-7 -10 -9 -15 -5 -11 5 4 16 2 25 -5 14 -10 14 -10 3 5
-10 13 -10 17 0 21 8 3 8 6 2 6 -6 1 -18 -7 -25 -16z"/>
<path d="M1373 1908 c3 -9 3 -19 -1 -22 -11 -12 -10 -33 3 -33 13 0 13 53 0
65 -5 4 -6 0 -2 -10z"/>
<path d="M2633 1845 c0 -14 4 -25 9 -25 5 0 7 -4 4 -8 -2 -4 0 -14 5 -22 7
-12 8 -11 6 5 -1 11 -6 25 -10 32 -4 6 -3 14 3 18 6 4 8 11 5 16 -11 17 -22 9
-22 -16z"/>
<path d="M1390 1750 c0 -5 5 -10 10 -10 6 0 10 5 10 10 0 6 -4 10 -10 10 -5 0
-10 -4 -10 -10z"/>
<path d="M1380 1726 c0 -2 7 -9 15 -16 9 -7 15 -8 15 -2 0 5 -7 12 -15 16 -8
3 -15 4 -15 2z"/>
<path d="M2636 1697 c3 -10 9 -15 12 -12 3 3 0 11 -7 18 -10 9 -11 8 -5 -6z"/>
<path d="M1387 1659 c7 -7 15 -10 18 -7 3 3 -2 9 -12 12 -14 6 -15 5 -6 -5z"/>
<path d="M2668 1562 c4 -11 1 -13 -8 -7 -9 5 -11 4 -6 -3 10 -16 14 -15 25 6
7 14 6 19 -4 19 -7 0 -11 -7 -7 -15z"/>
<path d="M2655 1519 c-4 -6 -5 -12 -2 -15 2 -3 7 2 10 11 7 17 1 20 -8 4z"/>
<path d="M1410 1505 c-11 -13 -10 -14 4 -9 9 3 16 10 16 15 0 13 -6 11 -20 -6z"/>
<path d="M2670 1490 c0 -5 5 -10 11 -10 5 0 7 5 4 10 -3 6 -8 10 -11 10 -2 0
-4 -4 -4 -10z"/>
<path d="M1550 1476 c0 -2 7 -7 16 -10 8 -3 12 -2 9 4 -6 10 -25 14 -25 6z"/>
<path d="M1588 1443 c7 -3 16 -2 19 1 4 3 -2 6 -13 5 -11 0 -14 -3 -6 -6z"/>
<path d="M1620 1441 c0 -6 4 -13 10 -16 6 -3 7 1 4 9 -7 18 -14 21 -14 7z"/>
<path d="M1973 1434 c-9 -24 49 -55 63 -33 3 5 2 9 -3 8 -22 -4 -25 3 -7 17
17 15 17 15 -8 0 -27 -16 -46 -7 -33 14 3 6 4 10 0 10 -3 0 -8 -7 -12 -16z"/>
<path d="M2469 1433 c-13 -16 -12 -17 4 -4 9 7 17 15 17 17 0 8 -8 3 -21 -13z"/>
<path d="M2590 1442 c0 -5 -7 -9 -15 -10 -8 -1 -22 -3 -30 -4 -8 -1 -15 -6
-15 -11 0 -5 8 -6 18 -2 9 4 24 8 31 9 14 3 29 26 17 26 -3 0 -6 -4 -6 -8z"/>
<path d="M1730 1432 c0 -7 3 -12 8 -13 4 0 14 -2 23 -4 9 -1 16 3 16 11 0 9
-4 11 -12 4 -7 -6 -16 -5 -23 2 -9 9 -12 9 -12 0z"/>
<path d="M1926 1424 c-5 -14 -4 -15 9 -4 17 14 19 20 6 20 -5 0 -12 -7 -15
-16z"/>
<path d="M2067 1407 c-3 -8 0 -14 7 -14 7 0 13 6 13 14 0 7 -4 13 -8 13 -4 0
-9 -6 -12 -13z"/>
<path d="M2106 1404 c-5 -14 -4 -15 9 -4 17 14 19 20 6 20 -5 0 -12 -7 -15
-16z"/>
<path d="M2406 1393 c-6 -14 -5 -15 5 -6 7 7 10 15 7 18 -3 3 -9 -2 -12 -12z"/>
<path d="M2068 4603 c7 -3 16 -2 19 1 4 3 -2 6 -13 5 -11 0 -14 -3 -6 -6z"/>
<path d="M1860 4529 c0 -5 5 -7 10 -4 6 3 10 8 10 11 0 2 -4 4 -10 4 -5 0 -10
-5 -10 -11z"/>
<path d="M2135 4530 c3 -5 8 -10 11 -10 2 0 4 5 4 10 0 6 -5 10 -11 10 -5 0
-7 -4 -4 -10z"/>
<path d="M1790 4509 c0 -5 5 -7 10 -4 6 3 10 8 10 11 0 2 -4 4 -10 4 -5 0 -10
-5 -10 -11z"/>
<path d="M1700 4410 c0 -5 7 -7 15 -4 8 4 15 8 15 10 0 2 -7 4 -15 4 -8 0 -15
-4 -15 -10z"/>
<path d="M1675 4400 c3 -5 8 -10 11 -10 2 0 4 5 4 10 0 6 -5 10 -11 10 -5 0
-7 -4 -4 -10z"/>
<path d="M1660 4314 c0 -6 7 -19 16 -30 14 -18 14 -18 3 6 -14 31 -19 36 -19
24z"/>
<path d="M2176 4185 c4 -8 8 -15 10 -15 2 0 4 7 4 15 0 8 -4 15 -10 15 -5 0
-7 -7 -4 -15z"/>
<path d="M2170 4149 c0 -5 5 -7 10 -4 6 3 10 8 10 11 0 2 -4 4 -10 4 -5 0 -10
-5 -10 -11z"/>
<path d="M2202 4053 c-17 -7 -36 -43 -22 -43 5 0 10 5 10 11 0 7 8 18 18 25
18 14 16 16 -6 7z"/>
<path d="M1646 3908 c3 -5 10 -6 15 -3 13 9 11 12 -6 12 -8 0 -12 -4 -9 -9z"/>
<path d="M2255 3810 c3 -5 8 -10 11 -10 2 0 4 5 4 10 0 6 -5 10 -11 10 -5 0
-7 -4 -4 -10z"/>
<path d="M1678 3763 c6 -2 18 -2 25 0 6 3 1 5 -13 5 -14 0 -19 -2 -12 -5z"/>
<path d="M2638 3763 c7 -3 16 -2 19 1 4 3 -2 6 -13 5 -11 0 -14 -3 -6 -6z"/>
<path d="M2950 3751 c0 -6 4 -13 10 -16 6 -3 7 1 4 9 -7 18 -14 21 -14 7z"/>
<path d="M1676 3722 c-3 -5 1 -9 9 -9 8 0 12 4 9 9 -3 4 -7 8 -9 8 -2 0 -6 -4
-9 -8z"/>
<path d="M3026 3722 c-3 -6 -1 -14 5 -17 15 -10 25 3 12 16 -7 7 -13 7 -17 1z"/>
<path d="M3067 3719 c7 -7 15 -10 18 -7 3 3 -2 9 -12 12 -14 6 -15 5 -6 -5z"/>
<path d="M1636 3708 c3 -5 10 -6 15 -3 13 9 11 12 -6 12 -8 0 -12 -4 -9 -9z"/>
<path d="M3305 3710 c-3 -5 -12 -7 -20 -3 -8 3 -15 3 -15 0 0 -13 28 -13 45
-1 10 8 14 14 8 14 -7 0 -14 -4 -18 -10z"/>
<path d="M3370 3711 c0 -7 -4 -9 -10 -6 -5 3 -10 1 -10 -4 0 -6 4 -11 9 -11
13 0 25 20 17 27 -3 4 -6 1 -6 -6z"/>
<path d="M3450 3710 c0 -5 5 -10 11 -10 5 0 7 5 4 10 -3 6 -8 10 -11 10 -2 0
-4 -4 -4 -10z"/>
<path d="M3560 3710 c8 -5 20 -10 25 -10 6 0 3 5 -5 10 -8 5 -19 10 -25 10 -5
0 -3 -5 5 -10z"/>
<path d="M1046 3684 c-3 -8 -10 -13 -15 -10 -5 3 -14 -1 -20 -8 -7 -8 -8 -17
-3 -20 6 -3 15 1 22 9 7 8 17 12 23 8 5 -3 7 -1 3 5 -3 5 -1 12 6 14 8 3 9 6
1 11 -6 4 -14 0 -17 -9z"/>
<path d="M1356 3677 c-16 -12 -16 -14 -2 -14 9 0 16 4 16 9 0 5 5 6 12 2 7 -4
8 -3 4 4 -9 15 -8 15 -30 -1z"/>
<path d="M973 3640 c-1 -11 1 -22 5 -24 4 -2 8 7 8 20 1 13 -1 24 -5 24 -4 0
-7 -9 -8 -20z"/>
<path d="M3730 3616 c0 -2 7 -7 16 -10 8 -3 12 -2 9 4 -6 10 -25 14 -25 6z"/>
<path d="M935 3570 c-3 -5 -1 -10 4 -10 6 0 11 5 11 10 0 6 -2 10 -4 10 -3 0
-8 -4 -11 -10z"/>
<path d="M952 3543 c-11 -21 -5 -43 11 -43 8 0 8 3 -1 12 -7 7 -8 17 -1 30 5
10 7 18 5 18 -3 0 -9 -8 -14 -17z"/>
<path d="M906 3508 c3 -5 10 -6 15 -3 13 9 11 12 -6 12 -8 0 -12 -4 -9 -9z"/>
<path d="M3786 3428 c3 -4 9 -8 15 -8 5 0 9 4 9 8 0 5 -7 9 -15 9 -8 0 -12 -4
-9 -9z"/>
<path d="M958 3423 c7 -3 16 -2 19 1 4 3 -2 6 -13 5 -11 0 -14 -3 -6 -6z"/>
<path d="M948 3403 c7 -3 16 -2 19 1 4 3 -2 6 -13 5 -11 0 -14 -3 -6 -6z"/>
<path d="M956 3378 c13 -19 11 -32 -4 -43 -11 -9 -9 -11 7 -11 11 0 18 4 15 7
-2 4 0 10 6 14 16 10 12 23 -11 36 -17 9 -20 8 -13 -3z"/>
<path d="M3791 3326 c-8 -10 -8 -16 2 -24 10 -9 13 -6 13 13 0 29 0 29 -15 11z"/>
<path d="M948 3283 c7 -3 16 -2 19 1 4 3 -2 6 -13 5 -11 0 -14 -3 -6 -6z"/>
<path d="M3796 3271 c-4 -5 -2 -12 4 -16 5 -3 10 -3 10 2 0 4 5 1 10 -7 5 -8
10 -10 10 -4 0 17 -27 37 -34 25z"/>
<path d="M3787 2999 c7 -7 15 -10 18 -7 3 3 -2 9 -12 12 -14 6 -15 5 -6 -5z"/>
<path d="M982 2996 c4 -5 3 -15 -3 -22 -7 -9 -6 -12 5 -10 25 3 28 12 9 27
-10 7 -15 9 -11 5z"/>
<path d="M3786 2931 c-3 -5 1 -14 9 -21 10 -9 15 -9 15 -1 0 6 -6 11 -12 11
-9 0 -8 4 2 10 9 6 10 10 3 10 -6 0 -14 -4 -17 -9z"/>
<path d="M994 2901 c14 -5 16 -10 8 -15 -15 -9 -16 -26 -1 -26 5 0 8 4 4 9 -3
5 -1 12 5 16 14 9 2 25 -18 24 -14 0 -14 -2 2 -8z"/>
<path d="M1003 2828 c-2 -16 1 -18 10 -9 7 7 8 14 1 21 -6 6 -10 2 -11 -12z"/>
<path d="M980 2805 c7 -8 17 -15 22 -15 5 0 3 7 -6 15 -8 8 -18 15 -22 15 -3
0 -1 -7 6 -15z"/>
<path d="M974 2765 c3 -18 17 -35 29 -35 7 0 3 6 -7 12 -18 10 -18 11 -1 24
16 12 16 13 -3 11 -11 0 -19 -6 -18 -12z"/>
<path d="M3769 2763 c-8 -9 -9 -14 -2 -10 6 4 13 2 15 -5 3 -9 6 -9 12 0 4 7
2 12 -4 12 -6 0 -8 5 -5 10 10 16 -1 11 -16 -7z"/>
<path d="M3765 2731 c3 -5 0 -11 -7 -13 -7 -3 -8 -7 -3 -10 6 -3 15 0 22 7 10
10 9 14 -3 19 -8 3 -13 2 -9 -3z"/>
<path d="M993 2706 c3 -8 1 -17 -6 -19 -7 -3 -2 -4 10 -4 15 1 19 5 13 13 -6
6 -7 14 -3 17 3 4 1 7 -6 7 -7 0 -11 -6 -8 -14z"/>
<path d="M3755 2660 c3 -5 8 -10 11 -10 2 0 4 5 4 10 0 6 -5 10 -11 10 -5 0
-7 -4 -4 -10z"/>
<path d="M970 2646 c0 -2 8 -10 18 -17 15 -13 16 -12 3 4 -13 16 -21 21 -21
13z"/>
<path d="M1008 2488 c10 -13 10 -17 0 -21 -9 -4 -9 -6 -1 -6 20 -2 24 16 5 30
-15 13 -16 12 -4 -3z"/>
<path d="M1010 2435 c-7 -9 -8 -15 -2 -15 5 0 12 7 16 15 3 8 4 15 2 15 -2 0
-9 -7 -16 -15z"/>
<path d="M3765 2410 c-16 -7 -17 -9 -3 -9 9 -1 20 4 23 9 7 11 7 11 -20 0z"/>
<path d="M990 2395 c0 -5 5 -17 10 -25 5 -8 10 -10 10 -5 0 6 -5 17 -10 25 -5
8 -10 11 -10 5z"/>
<path d="M3757 2288 c4 -7 8 -16 8 -20 0 -3 3 -9 7 -13 3 -4 5 1 3 12 -2 10
-4 21 -4 26 -1 4 -6 7 -12 7 -6 0 -7 -5 -2 -12z"/>
<path d="M3770 2192 c0 -15 11 -21 27 -15 12 5 12 7 1 14 -17 11 -28 11 -28 1z"/>
<path d="M1036 2112 c-3 -5 1 -9 9 -9 8 0 12 4 9 9 -3 4 -7 8 -9 8 -2 0 -6 -4
-9 -8z"/>
<path d="M3790 2066 c-7 -9 -8 -21 -3 -30 7 -13 10 -13 28 1 20 15 20 15 -2 8
-18 -5 -22 -3 -17 9 3 9 10 13 15 10 5 -3 9 0 9 5 0 16 -15 13 -30 -3z"/>
<path d="M1050 1947 c0 -2 6 -10 14 -16 11 -9 16 -9 22 1 4 7 4 10 -1 6 -4 -4
-14 -3 -22 3 -7 6 -13 9 -13 6z"/>
<path d="M1070 1851 c0 -6 6 -11 13 -11 8 0 7 -4 -3 -10 -9 -6 -10 -10 -3 -10
19 0 24 17 8 30 -10 9 -15 9 -15 1z"/>
<path d="M3795 1750 c-3 -6 1 -7 9 -4 18 7 21 14 7 14 -6 0 -13 -4 -16 -10z"/>
<path d="M3813 1635 c0 -8 4 -12 9 -9 4 3 8 9 8 15 0 5 -4 9 -8 9 -5 0 -9 -7
-9 -15z"/>
<path d="M1100 1565 c7 -8 17 -15 22 -15 5 0 3 7 -6 15 -8 8 -18 15 -22 15 -3
0 -1 -7 6 -15z"/>
<path d="M1093 1517 c-1 -11 -1 -18 0 -16 2 2 8 11 15 20 9 12 9 16 -1 16 -7
0 -14 -9 -14 -20z"/>
<path d="M3866 1485 c-5 -15 11 -31 21 -21 4 3 0 6 -8 6 -12 0 -12 2 0 9 8 5
9 11 3 15 -5 3 -12 -1 -16 -9z"/>
<path d="M1119 1472 c9 -7 10 -11 2 -15 -7 -4 -8 -5 0 -3 15 2 13 20 -3 24
-10 3 -10 2 1 -6z"/>
<path d="M3873 1435 c0 -8 4 -12 9 -9 4 3 8 9 8 15 0 5 -4 9 -8 9 -5 0 -9 -7
-9 -15z"/>
<path d="M1112 1423 c6 -8 7 -18 2 -26 -5 -7 -1 -4 9 6 22 25 22 36 -2 34 -15
-1 -17 -4 -9 -14z"/>
<path d="M1115 1361 c-4 -7 0 -8 11 -4 12 4 15 3 10 -5 -4 -7 -2 -12 4 -12 14
0 8 22 -7 27 -6 2 -14 -1 -18 -6z"/>
<path d="M1136 1301 c-3 -5 1 -11 9 -14 9 -4 12 -1 8 9 -6 16 -10 17 -17 5z"/>
<path d="M3795 1230 c-15 -17 -16 -23 -5 -33 8 -7 11 -8 7 -1 -4 7 0 17 8 24
13 11 14 10 9 -5 -5 -13 -4 -16 4 -11 14 8 16 32 3 40 -4 3 -16 -3 -26 -14z"/>
<path d="M3556 1211 c-9 -9 -16 -22 -16 -27 0 -5 5 -1 11 9 6 9 14 15 19 12 5
-3 11 -1 14 4 12 18 -11 20 -28 2z"/>
<path d="M3444 1209 c-4 -7 -3 -9 4 -5 5 3 13 0 15 -6 4 -9 6 -10 6 -1 1 17
-16 25 -25 12z"/>
<path d="M3670 1200 c0 -5 7 -7 15 -4 8 4 15 8 15 10 0 2 -7 4 -15 4 -8 0 -15
-4 -15 -10z"/>
<path d="M3590 1189 c0 -5 5 -7 10 -4 6 3 10 8 10 11 0 2 -4 4 -10 4 -5 0 -10
-5 -10 -11z"/>
<path d="M1643 1163 c-7 -3 -13 -9 -13 -15 0 -7 5 -6 14 1 11 10 15 8 19 -6 4
-16 5 -16 6 2 1 17 3 18 12 5 8 -12 10 -12 7 -1 -4 15 -25 21 -45 14z"/>
<path d="M2026 1155 c-11 -8 -15 -15 -9 -15 6 0 16 7 23 15 16 19 11 19 -14 0z"/>
<path d="M1543 1136 c-1 -12 1 -15 4 -8 3 6 8 10 12 8 4 -3 8 1 8 8 0 22 -23
14 -24 -8z"/>
<path d="M1433 1120 c1 -21 10 -18 13 5 1 8 -2 15 -6 15 -5 0 -8 -9 -7 -20z"/>
<path d="M1398 1123 c6 -2 9 -10 6 -15 -4 -7 -2 -8 5 -4 13 9 5 26 -12 25 -9
0 -8 -2 1 -6z"/>
<path d="M1365 1110 c3 -5 8 -10 11 -10 2 0 4 5 4 10 0 6 -5 10 -11 10 -5 0
-7 -4 -4 -10z"/>
<path d="M2635 1110 c-3 -5 -1 -10 4 -10 6 0 11 5 11 10 0 6 -2 10 -4 10 -3 0
-8 -4 -11 -10z"/>
<path d="M2682 1007 c10 -8 15 -17 11 -20 -3 -4 -1 -7 5 -7 23 0 20 18 -6 29
-23 10 -25 10 -10 -2z"/>
<path d="M2695 960 c6 -10 4 -12 -11 -6 -15 6 -17 5 -6 -5 9 -9 15 -10 23 -2
8 8 7 13 -2 18 -8 6 -10 4 -4 -5z"/>
<path d="M3087 819 c7 -7 15 -10 18 -7 3 3 -2 9 -12 12 -14 6 -15 5 -6 -5z"/>
<path d="M3110 609 c0 -5 5 -7 10 -4 6 3 10 8 10 11 0 2 -4 4 -10 4 -5 0 -10
-5 -10 -11z"/>
<path d="M2691 495 c0 -12 34 -55 45 -55 4 0 0 8 -9 18 -10 10 -14 22 -10 27
5 4 3 5 -4 2 -6 -4 -14 -1 -16 5 -3 7 -6 9 -6 3z"/>
<path d="M2693 445 c0 -8 4 -12 9 -9 5 3 6 10 3 15 -9 13 -12 11 -12 -6z"/>
<path d="M2776 381 c-4 -5 -2 -12 3 -15 5 -4 12 -2 15 3 4 5 2 12 -3 15 -5 4
-12 2 -15 -3z"/>
<path d="M2934 309 c-4 -7 -3 -9 4 -5 5 3 12 0 15 -6 2 -7 7 -10 11 -7 4 3 0
12 -8 18 -11 9 -16 9 -22 0z"/>
<path d="M3050 311 c0 -6 4 -13 10 -16 6 -3 7 1 4 9 -7 18 -14 21 -14 7z"/>
<path d="M3010 286 c0 -2 8 -10 18 -17 15 -13 16 -12 3 4 -13 16 -21 21 -21
13z"/>
</g>
</svg>
